<svg xmlns="http://www.w3.org/2000/svg" width="256" height="256"><path fill-opacity=".016" d="M0 128.004v128.004l128.25-.254 128.25-.254.254-127.75L257.008 0H0v128.004m.485.496c0 70.4.119 99.053.265 63.672.146-35.38.146-92.98 0-128C.604 29.153.485 58.1.485 128.5" fill="#1976D2" fill-rule="evenodd"/><path fill-opacity=".151" d="M118.734 2.088c-5.732 1.351-11.092 4.417-14.495 8.293-2.964 3.375-3.409 4.758-5.986 18.619-.728 3.914-1.132 4.458-3.105 4.177-7.023-1-8.035 12.051-1.533 19.778C95.025 54.63 95.934 56 95.637 56c-1.025 0 2.127 8.86 4.176 11.738 1.267 1.778 1.923 4.008 1.713 5.822a1080.46 1080.46 0 00-1.036 9.71l-.697 6.77-5.343 2.616c-2.939 1.439-8.18 4.943-11.647 7.786-4.691 3.848-7.95 5.618-12.74 6.92-3.541.963-9.697 3.257-13.681 5.097-3.984 1.841-7.442 3.148-7.685 2.904-1.052-1.051-14.335 1.927-18.891 4.235-14.715 7.457-22.009 21.546-19.702 38.055.841 6.013.762 6.345-3.456 14.611-5.398 10.58-7.03 18.027-6.45 29.431.527 10.344 3.221 17.147 9.687 24.458C12.808 229.458 14 231.7 14 233.888c0 4.953 4.395 8.983 11 10.084 3.025.505 11.537 2.912 18.916 5.349 11.54 3.812 14.695 4.455 22.575 4.601 18.628.348 36.55-5.893 53.024-18.462l8.463-6.458 8.761 6.523c17.751 13.217 33.396 18.723 52.275 18.4 8.32-.143 11.458-.772 25-5.012 8.517-2.667 17.222-5.118 19.345-5.447 4.899-.759 8.194-4.27 9.054-9.648.439-2.744 1.878-5.505 4.224-8.101 3.678-4.072 8.336-12.942 8.353-15.908.006-.93.46-1.969 1.01-2.309.554-.343 1-4.899 1-10.226 0-5.284-.302-9.305-.672-8.936-.369.37-1.664-2.46-2.878-6.287-1.213-3.827-3.489-9.117-5.057-11.755-2.723-4.58-2.838-5.269-2.542-15.296.257-8.715-.046-11.449-1.779-16.079-4.908-13.115-17.473-21.839-33.572-23.309-2.75-.252-8.001-1.83-11.669-3.508-3.668-1.678-9.518-3.834-13-4.792-4.634-1.274-8.005-3.113-12.576-6.861-3.434-2.817-8.722-6.334-11.75-7.817-4.351-2.131-5.531-3.213-5.63-5.165-.069-1.358-.209-2.807-.311-3.219-.102-.412-.538-3.546-.969-6.964-.673-5.344-.509-6.603 1.172-9 1.076-1.532 2.521-4.586 3.213-6.786.692-2.2 2.555-6.144 4.139-8.765 5.18-8.567 3.293-21.27-2.869-19.314-1.68.533-2.082-.368-3.566-7.997-.92-4.728-2.39-10.11-3.268-11.961-4.353-9.171-20.941-14.612-34.682-11.375M113.5 8.164c-3.799 2.096-7.458 6.178-8.577 9.568-.617 1.871-.942 3.582-.723 3.802.22.22 3.204-2.961 6.631-7.067 6.139-7.356 6.615-8.48 2.669-6.303m-2.871 2.914c-2.721 2.139-5.129 5.756-4.351 6.533.242.242 2.108-1.597 4.148-4.086 4.102-5.006 4.147-5.55.203-2.447M.365 198.5c.003 5.5.171 7.622.373 4.716.203-2.905.201-7.405-.004-10-.206-2.594-.371-.216-.369 5.284" fill="#1976D2" fill-rule="evenodd"/><path fill-opacity=".653" d="M109 25.316l-3.5 1.034 4.231.64c6.245.944 6.064 1.662-.608 2.417-3.269.369-6.489 1.329-7.156 2.133-.666.803-1.832 1.46-2.589 1.46-.758 0-1.378.45-1.378 1s.45 1 1 1 1 .922 1 2.05c0 5.713 4.938 9.95 11.597 9.95 5.182 0 8.763-2.317 11.471-7.422 3.505-6.607 6.842-7.144 8.836-1.423.574 1.646 2.453 4.31 4.176 5.919C138.676 46.5 140.065 47 144.206 47c4.346 0 5.435-.441 8.394-3.4 2.123-2.123 3.4-4.376 3.4-6 0-1.43.45-2.6 1-2.6 2.088 0 .813-1.569-2.697-3.318-2.006-.999-5.852-2.078-8.545-2.397-5.146-.61-4.749-2.241.551-2.27 3.442-.018 2.744-1.573-1.044-2.325-1.942-.385-4.323.323-8 2.381-5.929 3.318-12.459 3.883-16.022 1.386-4.584-3.21-8.557-4.23-12.243-3.141m47.409 20.434c-.985 4.263-1.727 8.95-1.647 10.416.267 4.93-6.152 7.018-9.406 3.06-2.887-3.512-14.708-5.636-23.648-4.249-3.817.593-7.784 1.528-8.814 2.08-2.972 1.59-4.977 6.549-5.586 13.811l-.563 6.717 5.225 4.698c6.563 5.901 13.191 8.138 19.754 6.667 4.741-1.063 11.162-5.002 15.16-9.301 2.166-2.329 2.321-3.117 1.699-8.62l-.685-6.056 4.551-1.951c2.512-1.077 4.551-2.623 4.551-3.451 0-.825.849-1.955 1.886-2.51C161.384 55.724 165 49.49 165 46.52c0-2.306-4.368-8.52-5.989-8.52-.445 0-1.617 3.487-2.602 7.75M117.5 58.356c-4.655 1.398-6.35 4.862-6.444 13.167-.056 4.997-.03 5.038 5.162 8.231 2.87 1.765 5.571 2.857 6.002 2.426.431-.431 1.339-3.123 2.019-5.982 1.034-4.353 1.599-5.198 3.479-5.198 1.634 0 2.409.748 2.853 2.75.335 1.513 1.056 4.22 1.602 6.017l.993 3.267 4.934-2.685c7.156-3.895 7.368-4.309 6.101-11.952-.597-3.604-1.61-7.185-2.251-7.958-2.754-3.318-16.455-4.486-24.45-2.083M93.027 93.75c-2.957 1.513-7.724 4.888-10.592 7.5-2.868 2.612-5.664 4.75-6.211 4.75-1.853 0-16.693 5.238-21.224 7.49-2.68 1.333-7.185 2.445-11.139 2.75-12.347.952-25.067 9.359-30.625 20.24-2.943 5.763-4.148 17.559-2.429 23.785.947 3.428.738 4.248-2.422 9.494-4.473 7.427-7.472 16.953-8.11 25.768C-.227 202.447 1.417 214 2.902 214c.419 0 2.189-2.204 3.935-4.897 10.538-16.264 30.225-30.081 47.163-33.1 3.575-.637 7.894-1.578 9.597-2.09 2.197-.661 4.259-.522 7.088.476 3.093 1.091 5.026 1.171 8.595.354 4.923-1.127 12.118.47 19.72 4.375 8.982 4.615 26.431 6.786 39.7 4.941 4.51-.627 12.61-2.688 18-4.578 14.98-5.255 26.671-4.405 32.705 2.378 2.619 2.944 3.099 2.74 4.493-1.912.668-2.229 1.829-4.289 2.581-4.577 2.358-.905 13.688 2.476 22.021 6.572 4.4 2.163 10.948 6.371 14.55 9.353 6.189 5.12 15.246 15.505 17.841 20.455 1.751 3.34 3.007 2.743 3.729-1.772.353-2.212 1.034-4.264 1.511-4.559.478-.295.862-3.998.854-8.228-.011-5.335-.313-7.231-.985-6.191-.769 1.191-.977.984-1.006-1-.054-3.733-4.532-15.737-7.876-21.117-2.687-4.323-2.853-5.102-1.935-9.056 1.568-6.749.397-17.748-2.496-23.457-5.447-10.75-18.244-19.182-30.548-20.129-3.757-.289-8.375-1.393-10.639-2.544-2.2-1.118-8.36-3.455-13.69-5.194-7.032-2.294-10.793-4.158-13.713-6.796-4.719-4.264-11.235-8.51-15.153-9.876-2.536-.884-3.147-.566-7.065 3.685-5.072 5.502-9.292 7.822-17.195 9.453-10.849 2.239-22.896-1.167-30.001-8.483C102.658 94.4 101 92.312 101 91.847c0-1.501-2.472-.911-7.973 1.903M.343 198.5c.003 4.4.179 6.076.39 3.724.212-2.352.209-5.952-.006-8S.339 194.1.343 198.5" fill="#1976D2" fill-rule="evenodd"/><path fill-opacity=".729" d="M109.702 30.084c-8.379.72-10.243 2.217-9.263 7.441 2.179 11.619 16.863 12.422 22.417 1.225 1.986-4.003 2.804-4.75 5.203-4.75 2.411 0 3.151.686 4.826 4.473 2.103 4.753 6.914 8.517 10.897 8.523 3.393.006 8.918-2.568 10.049-4.68.545-1.019 1.307-3.534 1.692-5.589.673-3.584.555-3.796-2.908-5.243-3.923-1.64-30.16-2.495-42.913-1.4m-5.452 1.947c-4.9 1.97-2.124 2.969 8.25 2.969 8.308 0 10.5-.291 10.5-1.393 0-.766-.712-1.666-1.582-2-2.375-.911-14.597-.609-17.168.424m30-.369c-.687.278-1.25 1.142-1.25 1.921 0 1.137 2.127 1.41 10.75 1.384l10.75-.034-2.361-1.966c-1.888-1.573-3.79-1.951-9.5-1.888-3.926.043-7.701.306-8.389.583m21.374 26.877c-.965 2.514-.681 3.163.498 1.136.584-1.004.851-2.036.593-2.293-.257-.258-.749.263-1.091 1.157M151 62c-.825.533-1.05.969-.5.969s1.675-.436 2.5-.969c.825-.533 1.05-.969.5-.969s-1.675.436-2.5.969M94.452 93.562c-2.734 1.299-7.993 4.855-11.685 7.9-3.693 3.046-7.322 5.538-8.065 5.538-2.084 0-14.745 4.471-19.431 6.862-2.305 1.176-5.897 2.143-7.981 2.15-5.372.017-13.232 2.287-19.243 5.559-12.84 6.988-19.514 21.013-17.168 36.077.986 6.334.93 6.631-2.357 12.669-4.041 7.424-7.113 16.565-8.028 23.887-.679 5.43.777 16.467 2.383 18.073.493.493 1.858-.73 3.15-2.821 10.79-17.459 33.82-32.778 52.515-34.933 2.177-.251 5.162-.742 6.633-1.092 1.471-.35 4.224-.124 6.118.501 2.47.815 4.754.842 8.086.095 3.884-.87 5.618-.712 10.603.967 3.278 1.104 7.66 2.892 9.739 3.972 9.187 4.776 31.286 6.523 44.964 3.555 3.748-.814 10.64-2.833 15.315-4.487 12.482-4.416 20.43-3.757 28.45 2.36l3.446 2.629 2.009-4.541c2.236-5.056 1.572-4.964 13.035-1.811 15.302 4.207 32.237 16.8 41.843 31.114 4.012 5.978 5.178 5.744 5.96-1.198.284-2.523.909-4.587 1.387-4.587.479 0 .838-2.137.8-4.75-.053-3.574-.283-4.255-.93-2.75-.74 1.723-.871 1.584-.942-1-.143-5.232-2.849-13.741-6.996-22-3.87-7.708-3.985-8.219-3.162-14 2.309-16.202-4.589-29.692-18.9-36.964-4.727-2.402-13.152-4.536-17.911-4.536-1.547 0-5.763-1.338-9.37-2.973-3.607-1.636-9.406-3.757-12.888-4.715-4.695-1.291-8.008-3.116-12.821-7.064-3.57-2.928-8.674-6.361-11.342-7.629l-4.851-2.306-5.189 5.19c-7.323 7.323-14.255 9.83-25.628 9.27-10.278-.506-16.733-3.391-22.662-10.126l-3.915-4.448-4.971 2.363M.286 198.5c.008 2.75.202 3.756.432 2.236.229-1.52.223-3.77-.014-5-.237-1.23-.425.014-.418 2.764" fill="#1976D2" fill-rule="evenodd"/></svg>