<?xml version="1.0" encoding="utf-8"?>
<!-- Generator: Adobe Illustrator 18.0.0, SVG Export Plug-In . SVG Version: 6.00 Build 0)  -->
<!DOCTYPE svg PUBLIC "-//W3C//DTD SVG 1.1//EN" "http://www.w3.org/Graphics/SVG/1.1/DTD/svg11.dtd">
<svg version="1.1" id="Layer_1" xmlns="http://www.w3.org/2000/svg" xmlns:xlink="http://www.w3.org/1999/xlink" x="0px" y="0px"
	 width="841.9px" height="595.3px" viewBox="0 0 841.9 595.3" enable-background="new 0 0 841.9 595.3" xml:space="preserve">
<g>
	<rect x="0" fill="#F7941E" width="841.9" height="595.3"/>
	<g>
		<g>
			<path fill="#0A152A" d="M523.3,459.8c0,0,6.6-17.9-5.8-31.3c-12.4-13.4-27.9-11.1-27.9-11.1c-12.9-7.1-24-8.9-24-8.9
				c-10.5-11.1-20-13.4-20-13.4l-24.7,1.1l-24.7-1.1c0,0-9.5,2.4-20,13.4c0,0-11.1,1.8-24,8.9c0,0-15.5-2.4-27.9,11.1
				c-12.4,13.4-5.8,31.3-5.8,31.3s-16.8,21.8-7.9,45c0,0,14-30,50.1-35.8l15.4,35.8h44.8h44.8l15.4-35.8
				c36.1,5.8,50.1,35.8,50.1,35.8C540.2,481.7,523.3,459.8,523.3,459.8z"/>
			<path fill="#FDC06D" d="M481.2,469.1c0,0-2.5,3.5-3.7,8.6c0,0-14.6-3-35.6-0.9s-33.7,1.8-47.4-3.9c-13.7-5.6-23.4-3-30.1,4.7
				c0,0,41.7,27.1,65,45.6c19.9,15.8,44.7,18.8,60.5,13.5c15.8-5.3,19-7,23.9-7c4.9,0,8.4-5.3,8.1-11.9c0,0,5.1-3.5,9.4-13
				C531.3,504.9,516,473.6,481.2,469.1z"/>
			<path fill="#F0AD66" d="M521.9,517.8c0,0,5.1-3.5,9.4-13c0,0-0.9-1.9-2.8-4.8c-4.1,5.6-8,7.6-8,7.6c-1.8-5.3-7-8.5-7-8.5
				c2.5,13.9-1.8,18.7-17.2,24.7c-15.4,6-36.8,3.5-67.4-13.7c-24.3-13.7-50.9-30.1-60.6-36.1c-1.4,1-2.7,2.3-3.9,3.6
				c0,0,41.7,27.1,65,45.6c19.9,15.8,44.7,18.8,60.5,13.5c15.8-5.3,19-7,23.9-7S522.3,524.5,521.9,517.8z"/>
			<g>
				<path fill="#FDC06D" d="M446,349.9c0,0,1.3-6.4,5-5.5c3.7,0.9,4.2,6.8,2.9,10.9s-4.4,10-7.9,7.2V349.9z"/>
				<path fill="#DBA75F" d="M452.3,349.1c-0.1-0.4-0.2-0.9-0.4-1.3c-0.1-0.2-0.3-0.4-0.4-0.6c-0.2-0.2-0.4-0.3-0.6-0.4
					c-0.1-0.1-0.2-0.1-0.4-0.1l-0.1,0l-0.1,0c-0.1,0-0.1,0-0.2,0c-0.3,0-0.5,0.1-0.8,0.3c-0.4,0.3-0.7,0.6-1,1
					c-0.3,0.4-0.5,0.8-0.7,1.2c-0.2,0.4-0.4,0.8-0.5,1.2c-0.2,0.4-0.3,0.8-0.4,1.3l-0.1,0.5l0.5,0.1c0.1,0,0.2,0.1,0.3,0.1
					c0.1,0.1,0.2,0.1,0.3,0.2c0.2,0.1,0.4,0.3,0.5,0.5c0.1,0.1,0.1,0.2,0.2,0.3c0.1,0.1,0.1,0.2,0.1,0.4c0,0.1,0.1,0.2,0.1,0.4
					l0,0.2l0,0.2c0,0.2,0,0.3,0,0.4c0,0.1,0,0.3-0.1,0.4c-0.1,0.3-0.1,0.5-0.3,0.8c-0.1,0.3-0.2,0.5-0.4,0.7
					c-0.1,0.1-0.2,0.2-0.2,0.3c-0.1,0.1-0.2,0.2-0.2,0.3l-0.1,0.1l0,0.1c0,0.2,0,0.4,0,0.6c0,0.2,0,0.4,0.1,0.6
					c0.1,0.2,0.2,0.4,0.4,0.6c0.2,0.2,0.4,0.3,0.6,0.3c0.2,0.1,0.4,0.1,0.7,0.1c0.1,0,0.2,0,0.3,0c0.1,0,0.2-0.1,0.3-0.1
					c0.2-0.1,0.4-0.2,0.5-0.3c0.2-0.1,0.3-0.3,0.4-0.4c0.5-0.6,0.8-1.3,1-1.9c0.2-0.7,0.3-1.4,0.4-2.1c-0.2,0.7-0.4,1.3-0.7,1.9
					c-0.2,0.3-0.3,0.6-0.5,0.9c-0.2,0.3-0.4,0.5-0.6,0.8c-0.1,0.1-0.2,0.2-0.4,0.3c-0.1,0.1-0.3,0.1-0.4,0.2c-0.1,0-0.1,0-0.2,0
					c-0.1,0-0.2,0-0.2,0c-0.1,0-0.3,0-0.4-0.1c-0.1,0-0.2-0.1-0.3-0.2c-0.1-0.1-0.1-0.2-0.1-0.3c0-0.1-0.1-0.2-0.1-0.4
					c0-0.1,0-0.2,0-0.3c0.1-0.1,0.2-0.2,0.2-0.3c0.1-0.1,0.2-0.3,0.3-0.4c0.2-0.3,0.4-0.6,0.5-0.9c0.1-0.3,0.2-0.6,0.3-1
					c0-0.2,0.1-0.3,0.1-0.5c0-0.2,0-0.4,0-0.5l0-0.3l0-0.3c0-0.2,0-0.4-0.1-0.5c0-0.2-0.1-0.4-0.2-0.5c-0.1-0.2-0.2-0.3-0.3-0.5
					c-0.2-0.3-0.5-0.6-0.8-0.8c-0.2-0.1-0.3-0.2-0.5-0.3c0,0,0,0,0,0c0.1-0.3,0.1-0.5,0.2-0.8c0.1-0.4,0.3-0.8,0.4-1.2
					c0.2-0.4,0.3-0.8,0.5-1.1c0.2-0.3,0.4-0.7,0.7-0.9c0.1-0.1,0.3-0.2,0.4-0.2c0,0,0.1,0,0.1,0c0,0,0.1,0,0.1,0l0.1,0
					c0.1,0,0.2,0,0.3,0c0.2,0,0.3,0.1,0.5,0.2c0.1,0.1,0.3,0.3,0.4,0.4c0.2,0.3,0.4,0.7,0.5,1.1c0.1,0.4,0.2,0.8,0.3,1.3
					C452.4,350,452.3,349.5,452.3,349.1z"/>
				<path fill="#FDC06D" d="M395.5,349.9c0,0-1.3-6.4-5-5.5c-3.7,0.9-4.2,6.8-2.9,10.9s4.4,10,7.9,7.2V349.9z"/>
				<path fill="#DBA75F" d="M389.3,349.1c0.1-0.4,0.2-0.9,0.4-1.3c0.1-0.2,0.3-0.4,0.4-0.6c0.2-0.2,0.4-0.3,0.6-0.4
					c0.1-0.1,0.2-0.1,0.4-0.1l0.1,0l0.1,0c0.1,0,0.1,0,0.2,0c0.3,0,0.5,0.1,0.8,0.3c0.4,0.3,0.7,0.6,1,1c0.3,0.4,0.5,0.8,0.7,1.2
					c0.2,0.4,0.4,0.8,0.5,1.2c0.2,0.4,0.3,0.8,0.4,1.3l0.1,0.5l-0.5,0.1c-0.1,0-0.2,0.1-0.3,0.1c-0.1,0.1-0.2,0.1-0.3,0.2
					c-0.2,0.1-0.4,0.3-0.5,0.5c-0.1,0.1-0.1,0.2-0.2,0.3c-0.1,0.1-0.1,0.2-0.1,0.4c0,0.1-0.1,0.2-0.1,0.4l0,0.2l0,0.2
					c0,0.2,0,0.3,0,0.4c0,0.1,0,0.3,0.1,0.4c0.1,0.3,0.1,0.5,0.3,0.8c0.1,0.3,0.2,0.5,0.4,0.7c0.1,0.1,0.2,0.2,0.2,0.3
					c0.1,0.1,0.2,0.2,0.2,0.3l0.1,0.1l0,0.1c0,0.2,0,0.4,0,0.6c0,0.2,0,0.4-0.1,0.6c-0.1,0.2-0.2,0.4-0.4,0.6
					c-0.2,0.2-0.4,0.3-0.6,0.3c-0.2,0.1-0.4,0.1-0.7,0.1c-0.1,0-0.2,0-0.3,0c-0.1,0-0.2-0.1-0.3-0.1c-0.2-0.1-0.4-0.2-0.5-0.3
					c-0.2-0.1-0.3-0.3-0.4-0.4c-0.5-0.6-0.8-1.3-1-1.9c-0.2-0.7-0.3-1.4-0.4-2.1c0.2,0.7,0.4,1.3,0.7,1.9c0.2,0.3,0.3,0.6,0.5,0.9
					c0.2,0.3,0.4,0.5,0.6,0.8c0.1,0.1,0.2,0.2,0.4,0.3c0.1,0.1,0.3,0.1,0.4,0.2c0.1,0,0.1,0,0.2,0c0.1,0,0.2,0,0.2,0
					c0.1,0,0.3,0,0.4-0.1c0.1,0,0.2-0.1,0.3-0.2c0.1-0.1,0.1-0.2,0.1-0.3c0-0.1,0.1-0.2,0.1-0.4c0-0.1,0-0.2,0-0.3
					c-0.1-0.1-0.2-0.2-0.2-0.3c-0.1-0.1-0.2-0.3-0.3-0.4c-0.2-0.3-0.4-0.6-0.5-0.9c-0.1-0.3-0.2-0.6-0.3-1c0-0.2-0.1-0.3-0.1-0.5
					c0-0.2,0-0.4,0-0.5l0-0.3l0-0.3c0-0.2,0-0.4,0.1-0.5c0-0.2,0.1-0.4,0.2-0.5c0.1-0.2,0.2-0.3,0.3-0.5c0.2-0.3,0.5-0.6,0.8-0.8
					c0.2-0.1,0.3-0.2,0.5-0.3c0,0,0,0,0,0c-0.1-0.3-0.1-0.5-0.2-0.8c-0.1-0.4-0.3-0.8-0.4-1.2c-0.2-0.4-0.3-0.8-0.5-1.1
					c-0.2-0.3-0.4-0.7-0.7-0.9c-0.1-0.1-0.3-0.2-0.4-0.2c0,0-0.1,0-0.1,0c0,0-0.1,0-0.1,0l-0.1,0c-0.1,0-0.2,0-0.3,0
					c-0.2,0-0.3,0.1-0.5,0.2c-0.1,0.1-0.3,0.3-0.4,0.4c-0.2,0.3-0.4,0.7-0.5,1.1c-0.1,0.4-0.2,0.8-0.3,1.3
					C389.2,350,389.2,349.5,389.3,349.1z"/>
				<path fill="#FDC06D" d="M442.7,369.6h-21.9h-21.9l-2.6,25.5c0,0,6,13.4,24.6,13.4s24.6-13.4,24.6-13.4L442.7,369.6z"/>
				<path fill="#FFD38D" d="M449,361.4c-0.6-8.1-1.9-20.3-4-30c-3.5-15.8-24.2-15.4-24.2-15.4s-20.7-0.4-24.2,15.4
					c-2.1,9.6-3.4,21.9-4,30c-0.4,5.6,1.4,11.1,5.1,15.3c5.5,6.3,15,14.7,18.1,14.7c4.9,0,5.1,0,5.1,0s0.2,0,5.1,0
					c3.1,0,12.6-8.4,18.1-14.7C447.6,372.6,449.4,367,449,361.4z"/>
				<line fill="none" stroke="#26202B" stroke-width="2" stroke-miterlimit="10" x1="414.1" y1="342.3" x2="427.6" y2="342.3"/>
				<path fill="none" stroke="#26202B" stroke-width="2" stroke-miterlimit="10" d="M416,346.3c2.7-2.7,7.1-2.7,9.8,0"/>
				<g>
					<line fill="#24202B" x1="443.4" y1="344.3" x2="447.6" y2="345.3"/>
					
						<rect x="443.3" y="344.3" transform="matrix(0.9723 0.2336 -0.2336 0.9723 92.8871 -94.5483)" fill="#26202B" width="4.3" height="1.1"/>
				</g>
				<g>
					<line fill="#24202B" x1="398.3" y1="344.3" x2="394.1" y2="345.3"/>
					
						<rect x="395.7" y="342.6" transform="matrix(0.2334 0.9724 -0.9724 0.2334 638.9655 -120.962)" fill="#26202B" width="1.1" height="4.3"/>
				</g>
				<path fill="#DBA75F" d="M420.9,366.7c-10.5,0-12.4,2.9-12.4,2.9c3.3-1.3,12.4-1.4,12.4-1.4s9,0.1,12.4,1.4
					C433.2,369.6,431.3,366.7,420.9,366.7z"/>
				<g>
					<path fill="#594A42" d="M424.7,340.9c0,0,2,2.2,2.8,2.2c0.8,0,5.7-4.4,8.2-4.6s5.4,0.7,5.4,0.7s-4-3-7.1-2.6
						c-3.1,0.3-8.2,4.4-8.2,4.4H424.7z"/>
					<path fill="#594A42" d="M417,340.9c0,0-2,2.2-2.8,2.2s-5.7-4.4-8.2-4.6s-5.4,0.7-5.4,0.7s4-3,7.1-2.6c3.1,0.3,8.2,4.4,8.2,4.4
						H417z"/>
				</g>
				<path fill="#FDC06D" d="M420.8,369.4c-2.5,0-3.2,1.5-3.2,1.5h3.2h3.2C424,370.9,423.4,369.4,420.8,369.4z"/>
				<g>
					<path fill="#26202B" d="M418.2,345.1c0-2.4-2.3-4.3-8.5-4.3c-8.5,0-13.7,0.9-13.7,5.6c0,3.1,1.3,9.3,9.2,10.2
						C415.5,357.6,418.2,346.8,418.2,345.1z"/>
					<path fill="#26202B" d="M423.5,345.1c0-2.4,2.3-4.3,8.5-4.3c8.5,0,13.7,0.9,13.7,5.6c0,3.1-1.3,9.3-9.2,10.2
						C426.2,357.6,423.5,346.8,423.5,345.1z"/>
					<linearGradient id="SVGID_1_" gradientUnits="userSpaceOnUse" x1="434.5662" y1="340.2631" x2="434.5662" y2="349.2396">
						<stop  offset="0" style="stop-color:#FFFFFF"/>
						<stop  offset="1" style="stop-color:#000000;stop-opacity:0"/>
					</linearGradient>
					<path fill="url(#SVGID_1_)" d="M436.9,347.4c0.7,0.1,1.5,0.2,2.2,0.4c1.7,0.4,3.2,1,4.5,1.6c0.4-1.2,0.4-2.3,0.4-3
						c0-2.5-2-4-12.1-4c-4.3,0-6.9,1-6.9,2.7c0,0,0.3,2,1.4,4.2C429.3,347.7,432.7,346.8,436.9,347.4z"/>
					<linearGradient id="SVGID_2_" gradientUnits="userSpaceOnUse" x1="407.1484" y1="339.9122" x2="407.1484" y2="349.7401">
						<stop  offset="0" style="stop-color:#FFFFFF"/>
						<stop  offset="1" style="stop-color:#000000;stop-opacity:0"/>
					</linearGradient>
					<path fill="url(#SVGID_2_)" d="M404.8,347.4c-0.7,0.1-1.5,0.2-2.2,0.4c-1.7,0.4-3.2,1-4.5,1.6c-0.4-1.2-0.4-2.3-0.4-3
						c0-2.5,2-4,12.1-4c4.3,0,6.9,1,6.9,2.7c0,0-0.3,2-1.4,4.2C412.4,347.7,409,346.8,404.8,347.4z"/>
				</g>
				<path fill="#594A42" d="M448.3,353.2l-0.7-23.5c-3.5-16.6-26-17.5-26.7-17.5v0c0,0,0,0,0,0c0,0,0,0,0,0v0
					c-0.7,0-23.2,0.9-26.7,17.5l-0.7,23.5l7.3-21.5c0,0,6.2-2.5,20.2-2.6c14,0,20.2,2.6,20.2,2.6L448.3,353.2z"/>
				<polygon fill="#726658" points="393.4,353 400.6,331.7 394.1,329.7 				"/>
				<path fill="#726658" d="M449,361.4c-0.3-4.2-0.8-9.5-1.5-15c-0.6-0.4-1-0.6-1-0.6s0.2,12.5-0.6,13.6c-0.8,1.1-9.3,7.8-13.2,7.8
					c-2.6,0-7.1,0-9.8,0l9.4,2.8c0,0-0.7,8.3-2.5,11c-1.7,2.6-8.7,2.1-8.8,2.1c-0.1,0-7.1,0.5-8.8-2.1c-1.7-2.6-2.5-11-2.5-11
					l9.4-2.8c-2.6,0-7.6,0-10.3,0c-3.8,0-12.4-6.7-13.2-7.8c-0.8-1.1-0.6-13.6-0.6-13.6s-0.4,0.2-1,0.6c-0.7,5.5-1.2,10.8-1.5,15
					c-0.4,5.6,1.4,11.1,5.1,15.3c5.5,6.3,15,14.7,18.1,14.7c4.1,0,4.9,0,5.1,0c0,0,0,0,0,0s0,0,0.1,0c0,0,0,0,0,0c0.1,0,0.9,0,5.1,0
					c3.1,0,12.6-8.4,18.1-14.7C447.6,372.6,449.5,367,449,361.4z"/>
				<polygon fill="#726658" points="448.3,353 441.1,331.7 447.6,329.7 				"/>
				<path fill="#594A42" d="M433.6,366.3c-1.3-1.7-12.5-3.5-12.5-3.5s-11.2,1.8-12.5,3.5c-1.3,1.7-1.3,5.4-1.3,5.4s5.9-1.9,13.9-1.9
					s13.9,1.9,13.9,1.9S434.9,368,433.6,366.3z"/>
				<path fill="#FDC06D" d="M416.1,360.7h9.5c0,0-1,2.5-4.8,2.5C417.1,363.2,416.1,360.7,416.1,360.7z"/>
			</g>
			<path fill="#FFD38D" d="M360.8,469.1c0,0,2.5,3.5,3.7,8.6c0,0,14.6-3,35.6-0.9s33.7,1.8,47.4-3.9c13.7-5.6,23.4-3,30.1,4.7
				c0,0-41.7,27.1-65,45.6c-19.9,15.8-44.7,18.8-60.5,13.5c-15.8-5.3-19-7-23.9-7s-8.4-5.3-8.1-11.9c0,0-5.1-3.5-9.4-13
				C310.7,504.9,326,473.6,360.8,469.1z"/>
			<g>
				<path fill="#FDC06D" d="M380.6,472.8c0,0-10.5-4.9-13.6-5c-3-0.1-10.4,4.5-11.7,7.3s1.6,5,1.6,5L380.6,472.8z"/>
				<path fill="#FDC06D" d="M381.6,468.3c0,0-9.5,0.9-13.9,5.4c-1.6,1.7-6.8,11.3-6.9,14.1c-0.2,2.8,4.8,4,4.8,4s7.2-13.7,9.4-14.9
					c2.2-1.2,14.5-5.5,14.5-5.5S384.4,467.7,381.6,468.3z"/>
				<path fill="#FDC06D" d="M393.6,472.8c-1.9-2.5-5.2-3.4-8.1-2.2c-3.6,1.5-8,3.8-9.7,6.4c-3,4.7-4.5,15.1-4.1,17.9
					c0.4,2.8,5.4,3.1,5.4,3.1s4.4-14.9,5.8-16.7C384.2,479.7,393.6,472.8,393.6,472.8L393.6,472.8z"/>
				<path fill="#FDC06D" d="M396.7,474.7c0,0-2.4-4.2-5.6-2.9s-7.4,8.9-7.9,11c-0.5,2.1,0.1,10.5,2.4,11.2c2.3,0.7,4-0.2,4-0.2
					s1.1-8.8,1.5-10.1S396.7,474.7,396.7,474.7z"/>
			</g>
			<path fill="#F4C386" d="M320,517.8c0,0-5.1-3.5-9.4-13c0,0,0.9-1.9,2.8-4.8c4.1,5.6,8,7.6,8,7.6c1.8-5.3,7-8.5,7-8.5
				c-2.5,13.9,1.8,18.7,17.2,24.7c15.4,6,36.8,3.5,67.4-13.7c24.3-13.7,50.9-30.1,60.6-36.1c1.4,1,2.7,2.3,3.9,3.6
				c0,0-41.7,27.1-65,45.6c-19.9,15.8-44.7,18.8-60.5,13.5c-15.8-5.3-19-7-23.9-7C323.2,529.8,319.7,524.5,320,517.8z"/>
			<path fill="#1E2940" d="M483.2,421.7c-27.9-7.9-62.3,2.1-62.3,2.1s-34.5-10-62.3-2.1c0,0,29.8-2.7,58.4,6.9
				c2.1,13.6,4,39.2,4,39.2s1.8-25.5,4-39.2C453.4,419,483.2,421.7,483.2,421.7z"/>
			<path fill="#F0AD66" d="M421,397.2c-4.6,0-5.7-2.1-5.7-2.1c0,3.8,3.7,4.5,5.7,4.5c2,0,5.7-0.7,5.7-4.5
				C426.7,395.1,425.6,397.2,421,397.2z"/>
			<g>
				<path fill="#414042" d="M453.3,352.3l1.3,4.8c0,0-4.3,7.7-5.1,8.3s-3.8,0.5-3.8,0.5l-1-2.2L453.3,352.3z"/>
				<path fill="#58595B" d="M448.3,348.1l-3.6,15.6c0,0,3.5,0.5,4.4-0.4c0.9-1,4.3-10.3,4.2-10.9
					C453.2,351.7,448.3,348.1,448.3,348.1z"/>
				<g>
					<path fill="#414042" d="M438.9,371.7l-0.4-1.8c0,0,4.5-1,6.3-2.1c0.3-0.4,1-2,1.5-3.4l1.8,0.6c-1.3,3.8-2,4.2-2.2,4.3
						C443.8,370.6,439.1,371.7,438.9,371.7z"/>
				</g>
				<path fill="#414042" d="M437.3,371.3L437.3,371.3c0.2,0.7,1,1.1,1.7,0.9l1.6-0.5c0.7-0.2,1.1-1,0.9-1.7l0,0
					c-0.2-0.7-1-1.1-1.7-0.9l-1.6,0.5C437.5,369.9,437.1,370.6,437.3,371.3z"/>
			</g>
		</g>
		<g>
			<g>
				<path fill="#0A152A" d="M807.7,459.8c0,0,6.6-17.9-5.8-31.3c-12.4-13.4-27.9-11.1-27.9-11.1c-12.9-7.1-24-8.9-24-8.9
					c-10.5-11.1-20-13.4-20-13.4l-24.7,1.1l-24.7-1.1c0,0-9.5,2.4-20,13.4c0,0-11.1,1.8-24,8.9c0,0-15.5-2.4-27.9,11.1
					c-12.4,13.4-5.8,31.3-5.8,31.3s-16.8,21.8-7.9,45c0,0,14-30,50.1-35.8l15.4,35.8h44.8h44.8l15.4-35.8
					c36.1,5.8,50.1,35.8,50.1,35.8C824.6,481.7,807.7,459.8,807.7,459.8z"/>
				<path fill="#0A152A" d="M765.6,469.1c0,0-2.5,3.5-3.7,8.6c0,0-14.6-3-35.6-0.9c-21.1,2.1-33.7,1.8-47.4-3.9
					c-13.7-5.6-23.4-3-30.1,4.7c0,0,41.7,27.1,65,45.6c19.9,15.8,44.7,18.8,60.5,13.5c15.8-5.3,19-7,23.9-7c4.9,0,8.4-5.3,8.1-11.9
					c0,0,5.1-3.5,9.4-13C815.7,504.9,800.4,473.6,765.6,469.1z"/>
				<path fill="#E6E7E8" d="M747.4,405.9c-9.4-8.8-17.3-10.8-17.3-10.8l-24.7,1.1l-24.7-1.1c0,0-7.8,2-17.2,10.6l38.7,99.1h3.2h3.5
					L747.4,405.9z"/>
				<polygon fill="#0A152A" points="709.2,419.3 715.4,415.3 715.3,408.5 705.3,408.5 695.2,408.5 695.1,415.3 701.4,419.3 
					693.6,486.1 705.3,486.1 716.9,486.1 				"/>
				<g>
					<path fill="#1E2940" d="M671.4,398.5l34.1,102.8h-21.6l-35-49.9l10.6-20.6l-14.3-3.4l7.1-18.9
						C652.2,408.5,662.4,405.5,671.4,398.5z"/>
					<path fill="#1E2940" d="M739.4,398.5l-34.1,102.8h21.6l35-49.9l-10.6-20.6l14.3-3.4l-7.1-18.9
						C758.6,408.5,748.4,405.5,739.4,398.5z"/>
				</g>
				<g>
					<path fill="#020B22" d="M806.3,517.8c0,0,5.1-3.5,9.4-13c0,0-0.9-1.9-2.8-4.8c-4.1,5.6-8,7.6-8,7.6c-1.8-5.3-7-8.5-7-8.5
						c2.5,13.9-1.8,18.7-17.2,24.7c-15.4,6-36.8,3.5-67.4-13.7c-24.3-13.7-50.9-30.1-60.6-36.1c-1.4,1-2.7,2.3-3.9,3.6
						c0,0,41.7,27.1,65,45.6c19.9,15.8,44.7,18.8,60.5,13.5c15.8-5.3,19-7,23.9-7S806.7,524.5,806.3,517.8z"/>
					<path fill="#020B22" d="M812.9,500.1L812.9,500.1c1.9,2.9,2.7,4.8,2.7,4.8c3.3-8.6,3.1-17.1,1.5-24.3
						C816.6,492.5,812.9,500.1,812.9,500.1z"/>
				</g>
				<path fill="#0A152A" d="M645.2,469.1c0,0,2.5,3.5,3.7,8.6c0,0,14.6-3,35.6-0.9c21.1,2.1,33.7,1.8,47.4-3.9
					c13.7-5.6,23.4-3,30.1,4.7c0,0-41.7,27.1-65,45.6c-19.9,15.8-44.7,18.8-60.5,13.5c-15.8-5.3-19-7-23.9-7s-8.4-5.3-8.1-11.9
					c0,0-5.1-3.5-9.4-13C595.1,504.9,610.4,473.6,645.2,469.1z"/>
				<g>
					<path fill="#020B22" d="M604.4,517.8c0,0-5.1-3.5-9.4-13c0,0,0.9-1.9,2.8-4.8c4.1,5.6,8,7.6,8,7.6c1.8-5.3,7-8.5,7-8.5
						c-2.5,13.9,1.8,18.7,17.2,24.7c15.4,6,36.8,3.5,67.4-13.7c24.3-13.7,50.9-30.1,60.6-36.1c1.4,1,2.7,2.3,3.9,3.6
						c0,0-41.7,27.1-65,45.6c-19.9,15.8-44.7,18.8-60.5,13.5c-15.8-5.3-19-7-23.9-7C607.5,529.8,604,524.5,604.4,517.8z"/>
					<path fill="#020B22" d="M597.8,500.1L597.8,500.1c-1.9,2.9-2.7,4.8-2.7,4.8c-3.3-8.6-3.1-17.1-1.5-24.3
						C594.1,492.5,597.8,500.1,597.8,500.1z"/>
				</g>
				<path fill="#FDC06D" d="M734.4,472l9,18c10.8-7.3,18.6-12.4,18.6-12.4C755.7,470.4,746.8,467.7,734.4,472z"/>
				<g>
					<g>
						<path fill="#FDC06D" d="M730.5,349.9c0,0,1.3-6.4,5-5.5c3.7,0.9,4.2,6.8,2.9,10.9c-1.3,4.1-4.4,10-7.9,7.2V349.9z"/>
						<path fill="#DBA75F" d="M736.7,349.1c-0.1-0.4-0.2-0.9-0.4-1.3c-0.1-0.2-0.3-0.4-0.4-0.6c-0.2-0.2-0.4-0.3-0.6-0.4
							c-0.1-0.1-0.2-0.1-0.4-0.1l-0.1,0l-0.1,0c-0.1,0-0.1,0-0.2,0c-0.3,0-0.5,0.1-0.8,0.3c-0.4,0.3-0.7,0.6-1,1
							c-0.3,0.4-0.5,0.8-0.7,1.2c-0.2,0.4-0.4,0.8-0.5,1.2c-0.2,0.4-0.3,0.8-0.4,1.3l-0.1,0.5l0.5,0.1c0.1,0,0.2,0.1,0.3,0.1
							c0.1,0.1,0.2,0.1,0.3,0.2c0.2,0.1,0.4,0.3,0.5,0.5c0.1,0.1,0.1,0.2,0.2,0.3c0.1,0.1,0.1,0.2,0.1,0.4c0,0.1,0.1,0.2,0.1,0.4
							l0,0.2l0,0.2c0,0.2,0,0.3,0,0.4c0,0.1,0,0.3-0.1,0.4c-0.1,0.3-0.1,0.5-0.3,0.8c-0.1,0.3-0.2,0.5-0.4,0.7
							c-0.1,0.1-0.2,0.2-0.2,0.3c-0.1,0.1-0.2,0.2-0.2,0.3l-0.1,0.1l0,0.1c0,0.2,0,0.4,0,0.6c0,0.2,0,0.4,0.1,0.6
							c0.1,0.2,0.2,0.4,0.4,0.6c0.2,0.2,0.4,0.3,0.6,0.3c0.2,0.1,0.4,0.1,0.7,0.1c0.1,0,0.2,0,0.3,0c0.1,0,0.2-0.1,0.3-0.1
							c0.2-0.1,0.4-0.2,0.5-0.3c0.2-0.1,0.3-0.3,0.4-0.4c0.5-0.6,0.8-1.3,1-1.9c0.2-0.7,0.3-1.4,0.4-2.1c-0.2,0.7-0.4,1.3-0.7,1.9
							c-0.2,0.3-0.3,0.6-0.5,0.9c-0.2,0.3-0.4,0.5-0.6,0.8c-0.1,0.1-0.2,0.2-0.4,0.3c-0.1,0.1-0.3,0.1-0.4,0.2c-0.1,0-0.1,0-0.2,0
							c-0.1,0-0.2,0-0.2,0c-0.1,0-0.3,0-0.4-0.1c-0.1,0-0.2-0.1-0.3-0.2c-0.1-0.1-0.1-0.2-0.1-0.3c0-0.1-0.1-0.2-0.1-0.4
							c0-0.1,0-0.2,0-0.3c0.1-0.1,0.2-0.2,0.2-0.3c0.1-0.1,0.2-0.3,0.3-0.4c0.2-0.3,0.4-0.6,0.5-0.9c0.1-0.3,0.2-0.6,0.3-1
							c0-0.2,0.1-0.3,0.1-0.5c0-0.2,0-0.4,0-0.5l0-0.3l0-0.3c0-0.2,0-0.4-0.1-0.5c0-0.2-0.1-0.4-0.2-0.5c-0.1-0.2-0.2-0.3-0.3-0.5
							c-0.2-0.3-0.5-0.6-0.8-0.8c-0.2-0.1-0.3-0.2-0.5-0.3c0,0,0,0,0,0c0.1-0.3,0.1-0.5,0.2-0.8c0.1-0.4,0.3-0.8,0.4-1.2
							c0.2-0.4,0.3-0.8,0.5-1.1c0.2-0.3,0.4-0.7,0.7-0.9c0.1-0.1,0.3-0.2,0.4-0.2c0,0,0.1,0,0.1,0c0,0,0.1,0,0.1,0l0.1,0
							c0.1,0,0.2,0,0.3,0c0.2,0,0.3,0.1,0.5,0.2c0.1,0.1,0.3,0.3,0.4,0.4c0.2,0.3,0.4,0.7,0.5,1.1c0.1,0.4,0.2,0.8,0.3,1.3
							C736.8,350,736.8,349.5,736.7,349.1z"/>
						<path fill="#FDC06D" d="M679.9,349.9c0,0-1.3-6.4-5-5.5c-3.7,0.9-4.2,6.8-2.9,10.9c1.3,4.1,4.4,10,7.9,7.2V349.9z"/>
						<path fill="#DBA75F" d="M673.7,349.1c0.1-0.4,0.2-0.9,0.4-1.3c0.1-0.2,0.3-0.4,0.4-0.6c0.2-0.2,0.4-0.3,0.6-0.4
							c0.1-0.1,0.2-0.1,0.4-0.1l0.1,0l0.1,0c0.1,0,0.1,0,0.2,0c0.3,0,0.5,0.1,0.8,0.3c0.4,0.3,0.7,0.6,1,1c0.3,0.4,0.5,0.8,0.7,1.2
							c0.2,0.4,0.4,0.8,0.5,1.2c0.2,0.4,0.3,0.8,0.4,1.3l0.1,0.5l-0.5,0.1c-0.1,0-0.2,0.1-0.3,0.1c-0.1,0.1-0.2,0.1-0.3,0.2
							c-0.2,0.1-0.4,0.3-0.5,0.5c-0.1,0.1-0.1,0.2-0.2,0.3c-0.1,0.1-0.1,0.2-0.1,0.4c0,0.1-0.1,0.2-0.1,0.4l0,0.2l0,0.2
							c0,0.2,0,0.3,0,0.4c0,0.1,0,0.3,0.1,0.4c0.1,0.3,0.1,0.5,0.3,0.8c0.1,0.3,0.2,0.5,0.4,0.7c0.1,0.1,0.2,0.2,0.2,0.3
							c0.1,0.1,0.2,0.2,0.2,0.3l0.1,0.1l0,0.1c0,0.2,0,0.4,0,0.6c0,0.2,0,0.4-0.1,0.6c-0.1,0.2-0.2,0.4-0.4,0.6
							c-0.2,0.2-0.4,0.3-0.6,0.3c-0.2,0.1-0.4,0.1-0.7,0.1c-0.1,0-0.2,0-0.3,0c-0.1,0-0.2-0.1-0.3-0.1c-0.2-0.1-0.4-0.2-0.5-0.3
							c-0.2-0.1-0.3-0.3-0.4-0.4c-0.5-0.6-0.8-1.3-1-1.9c-0.2-0.7-0.3-1.4-0.4-2.1c0.2,0.7,0.4,1.3,0.7,1.9c0.2,0.3,0.3,0.6,0.5,0.9
							c0.2,0.3,0.4,0.5,0.6,0.8c0.1,0.1,0.2,0.2,0.4,0.3c0.1,0.1,0.3,0.1,0.4,0.2c0.1,0,0.1,0,0.2,0c0.1,0,0.2,0,0.2,0
							c0.1,0,0.3,0,0.4-0.1c0.1,0,0.2-0.1,0.3-0.2c0.1-0.1,0.1-0.2,0.1-0.3c0-0.1,0.1-0.2,0.1-0.4c0-0.1,0-0.2,0-0.3
							c-0.1-0.1-0.2-0.2-0.2-0.3c-0.1-0.1-0.2-0.3-0.3-0.4c-0.2-0.3-0.4-0.6-0.5-0.9c-0.1-0.3-0.2-0.6-0.3-1c0-0.2-0.1-0.3-0.1-0.5
							c0-0.2,0-0.4,0-0.5l0-0.3l0-0.3c0-0.2,0-0.4,0.1-0.5c0-0.2,0.1-0.4,0.2-0.5c0.1-0.2,0.2-0.3,0.3-0.5c0.2-0.3,0.5-0.6,0.8-0.8
							c0.2-0.1,0.3-0.2,0.5-0.3c0,0,0,0,0,0c-0.1-0.3-0.1-0.5-0.2-0.8c-0.1-0.4-0.3-0.8-0.4-1.2c-0.2-0.4-0.3-0.8-0.5-1.1
							c-0.2-0.3-0.4-0.7-0.7-0.9c-0.1-0.1-0.3-0.2-0.4-0.2c0,0-0.1,0-0.1,0c0,0-0.1,0-0.1,0l-0.1,0c-0.1,0-0.2,0-0.3,0
							c-0.2,0-0.3,0.1-0.5,0.2c-0.1,0.1-0.3,0.3-0.4,0.4c-0.2,0.3-0.4,0.7-0.5,1.1c-0.1,0.4-0.2,0.8-0.3,1.3
							C673.6,350,673.6,349.5,673.7,349.1z"/>
						<path fill="#FDC06D" d="M727.1,369.6h-21.9h-21.9l-2.6,25.5c0,0,6,13.4,24.6,13.4s24.6-13.4,24.6-13.4L727.1,369.6z"/>
						<path fill="#FFD38D" d="M733.4,361.4c-0.6-8.1-1.9-20.3-4-30c-3.5-15.8-24.2-15.4-24.2-15.4s-20.7-0.4-24.2,15.4
							c-2.1,9.6-3.4,21.9-4,30c-0.4,5.6,1.4,11.1,5.1,15.3c5.5,6.3,15,14.7,18.1,14.7c4.9,0,5.1,0,5.1,0s0.2,0,5.1,0
							c3.1,0,12.6-8.4,18.1-14.7C732,372.6,733.8,367,733.4,361.4z"/>
						<line fill="none" stroke="#26202B" stroke-width="2" stroke-miterlimit="10" x1="698.6" y1="342.3" x2="712" y2="342.3"/>
						<path fill="none" stroke="#26202B" stroke-width="2" stroke-miterlimit="10" d="M700.4,346.3c2.7-2.7,7.1-2.7,9.8,0"/>
						<g>
							<line fill="#24202B" x1="727.8" y1="344.3" x2="732" y2="345.3"/>
							
								<rect x="727.8" y="344.3" transform="matrix(0.9723 0.2336 -0.2336 0.9723 100.7596 -161.0039)" fill="#26202B" width="4.3" height="1.1"/>
						</g>
						<g>
							<line fill="#24202B" x1="682.7" y1="344.3" x2="678.5" y2="345.3"/>
							
								<rect x="680.1" y="342.6" transform="matrix(0.2334 0.9724 -0.9724 0.2334 856.9966 -397.5335)" fill="#26202B" width="1.1" height="4.3"/>
						</g>
						<path fill="#DBA75F" d="M705.3,366.7c-10.5,0-12.4,2.9-12.4,2.9c3.3-1.3,12.4-1.4,12.4-1.4s9,0.1,12.4,1.4
							C717.7,369.6,715.8,366.7,705.3,366.7z"/>
						<g>
							<path fill="#594A42" d="M709.2,340.9c0,0,2,2.2,2.8,2.2c0.8,0,5.7-4.4,8.2-4.6s5.4,0.7,5.4,0.7s-4-3-7.1-2.6
								c-3.1,0.3-8.2,4.4-8.2,4.4H709.2z"/>
							<path fill="#594A42" d="M701.4,340.9c0,0-2,2.2-2.8,2.2c-0.8,0-5.7-4.4-8.2-4.6s-5.4,0.7-5.4,0.7s4-3,7.1-2.6
								c3.1,0.3,8.2,4.4,8.2,4.4H701.4z"/>
						</g>
						<path fill="#FDC06D" d="M705.3,369.4c-2.5,0-3.2,1.5-3.2,1.5h3.2h3.2C708.4,370.9,707.8,369.4,705.3,369.4z"/>
						<g>
							<path fill="#26202B" d="M702.7,345.1c0-2.4-2.3-4.3-8.5-4.3c-8.5,0-13.7,0.9-13.7,5.6c0,3.1,1.3,9.3,9.2,10.2
								C699.9,357.6,702.7,346.8,702.7,345.1z"/>
							<path fill="#26202B" d="M707.9,345.1c0-2.4,2.3-4.3,8.5-4.3c8.5,0,13.7,0.9,13.7,5.6c0,3.1-1.3,9.3-9.2,10.2
								C710.7,357.6,707.9,346.8,707.9,345.1z"/>
							<linearGradient id="SVGID_3_" gradientUnits="userSpaceOnUse" x1="718.9964" y1="340.2631" x2="718.9964" y2="349.2397">
								<stop  offset="0" style="stop-color:#FFFFFF"/>
								<stop  offset="1" style="stop-color:#000000;stop-opacity:0"/>
							</linearGradient>
							<path fill="url(#SVGID_3_)" d="M721.4,347.4c0.7,0.1,1.5,0.2,2.2,0.4c1.7,0.4,3.2,1,4.5,1.6c0.4-1.2,0.4-2.3,0.4-3
								c0-2.5-2-4-12.1-4c-4.3,0-6.9,1-6.9,2.7c0,0,0.3,2,1.4,4.2C713.7,347.7,717.2,346.8,721.4,347.4z"/>
							<linearGradient id="SVGID_4_" gradientUnits="userSpaceOnUse" x1="691.5786" y1="339.9122" x2="691.5786" y2="349.7401">
								<stop  offset="0" style="stop-color:#FFFFFF"/>
								<stop  offset="1" style="stop-color:#000000;stop-opacity:0"/>
							</linearGradient>
							<path fill="url(#SVGID_4_)" d="M689.2,347.4c-0.7,0.1-1.5,0.2-2.2,0.4c-1.7,0.4-3.2,1-4.5,1.6c-0.4-1.2-0.4-2.3-0.4-3
								c0-2.5,2-4,12.1-4c4.3,0,6.9,1,6.9,2.7c0,0-0.3,2-1.4,4.2C696.9,347.7,693.4,346.8,689.2,347.4z"/>
						</g>
						<path fill="#594A42" d="M732.7,353.2l-0.7-23.5c-3.5-16.6-26-17.5-26.7-17.5v0c0,0,0,0,0,0c0,0,0,0,0,0v0
							c-0.7,0-23.2,0.9-26.7,17.5l-0.7,23.5l7.3-21.5c0,0,6.2-2.5,20.2-2.6c14,0,20.2,2.6,20.2,2.6L732.7,353.2z"/>
						<path fill="#FDC06D" d="M700.5,360.7h9.5c0,0-1,2.5-4.8,2.5C701.5,363.2,700.5,360.7,700.5,360.7z"/>
						<path fill="#726658" d="M720.7,324.8c-0.5-1.6-0.7-3.2-0.6-4.9c-1.3,0.4-2.5,0.7-3.8,1.1c0.8-0.9,1.3-2.1,1.5-3.3
							c-2.8,0.8-5.5,1.5-8.4,2c0.4-1,0.8-2,1.1-3c-2.8,1-5.6,2.1-8.4,3.1c0.3-1.1,0.6-2.2,0.9-3.2c-3,1.4-6,2.9-8.9,4.6
							c0.3-1,0.7-2,1-3c-5.2,2.3-9.2,7.9-10.1,13.5c0,0,6.2-2.5,20.2-2.6c14,0,20.2,2.6,20.2,2.6c0-4.3-1.8-5.7-2.8-8.4
							C722,323.8,721.4,324.3,720.7,324.8z"/>
					</g>
					<path fill="#F0AD66" d="M705.5,397.2c-4.6,0-5.7-2.1-5.7-2.1c0,3.8,3.7,4.5,5.7,4.5s5.7-0.7,5.7-4.5
						C711.2,395.1,710,397.2,705.5,397.2z"/>
					<g>
						<path fill="#414042" d="M737.7,352.3l1.3,4.8c0,0-4.3,7.7-5.1,8.3s-3.8,0.5-3.8,0.5l-1-2.2L737.7,352.3z"/>
						<path fill="#58595B" d="M732.7,348.1l-3.6,15.6c0,0,3.5,0.5,4.4-0.4c0.9-1,4.3-10.3,4.2-10.9
							C737.6,351.7,732.7,348.1,732.7,348.1z"/>
						<g>
							<path fill="#414042" d="M723.4,371.7l-0.4-1.8c0,0,4.5-1,6.3-2.1c0.3-0.4,1-2,1.5-3.4l1.8,0.6c-1.3,3.8-2,4.2-2.2,4.3
								C728.2,370.6,723.6,371.7,723.4,371.7z"/>
						</g>
						<path fill="#414042" d="M721.8,371.3L721.8,371.3c0.2,0.7,1,1.1,1.7,0.9l1.6-0.5c0.7-0.2,1.1-1,0.9-1.7l0,0
							c-0.2-0.7-1-1.1-1.7-0.9l-1.6,0.5C722,369.9,721.6,370.6,721.8,371.3z"/>
					</g>
				</g>
				<g>
					<path fill="#FDC06D" d="M665,472.8c0,0-10.5-4.9-13.6-5c-3-0.1-10.4,4.5-11.7,7.3s1.6,5,1.6,5L665,472.8z"/>
					<path fill="#FDC06D" d="M666,468.3c0,0-9.5,0.9-13.9,5.4c-1.6,1.7-6.8,11.3-6.9,14.1s4.8,4,4.8,4s7.2-13.7,9.4-14.9
						c2.2-1.2,14.5-5.5,14.5-5.5S668.8,467.7,666,468.3z"/>
					<path fill="#FDC06D" d="M678,472.8c-1.9-2.5-5.2-3.4-8.1-2.2c-3.6,1.5-8,3.8-9.7,6.4c-3,4.7-4.5,15.1-4.1,17.9
						c0.4,2.8,5.4,3.1,5.4,3.1s4.4-14.9,5.8-16.7C668.6,479.7,678,472.8,678,472.8L678,472.8z"/>
					<path fill="#FDC06D" d="M681.2,474.7c0,0-2.4-4.2-5.6-2.9s-7.4,8.9-7.9,11c-0.5,2.1,0.1,10.5,2.4,11.2c2.3,0.7,4-0.2,4-0.2
						s1.1-8.8,1.5-10.1S681.2,474.7,681.2,474.7z"/>
				</g>
				<g>
					<g>
						<path fill="#FFFFFF" d="M705.2,408.5c0,0,3.2,0.2,3.4,0.8s7.1,14.6,7.1,14.6s12.5-4.9,17.1-8.9c4.6-4,7.7-15.5,7.7-15.5
							l-10.3-8c0,0-6.9,11.5-24.1,15.8C705.6,407.4,705.5,408.1,705.2,408.5z"/>
					</g>
					<g>
						<path fill="#FFFFFF" d="M705.3,408.5c0,0-3.2,0.2-3.4,0.8s-7.1,14.6-7.1,14.6s-12.5-4.9-17.1-8.9c-4.6-4-7.7-15.5-7.7-15.5
							l10.3-8c0,0,6.9,11.5,24.1,15.8C704.9,407.4,705,408.1,705.3,408.5z"/>
					</g>
				</g>
			</g>
			<path fill="#F0AD66" d="M705.4,397.2c-4.6,0-5.7-2.1-5.7-2.1c0,3.8,3.7,4.5,5.7,4.5c2,0,5.7-0.7,5.7-4.5
				C711.1,395.1,710,397.2,705.4,397.2z"/>
		</g>
		<g>
			<g>
				<path fill="#3C2415" d="M451,100c0.2,0.5,0.4,1.1,0.6,1.6c0.7,2.2,1.4,4.4,1.9,6.6c0.1,0.5,0.2,1,0.5,1.4
					c0.8,1.5,2.3,1.8,2.7,3.6c0.6,2.2-0.5,4.4-1.7,6.3c-1.2,1.9-2.6,3.8-2.9,6c-0.5,4.4,3.6,7.8,5.3,11.9c1.2,3.1,0.9,6.8-0.9,9.6
					c-2.3,3.6-6.6,5.3-10.8,6.1c-4.2,0.8-8.5,0.9-12.6,2c-4.1,1.2-7.9,3.6-12,4.7c-3.6,1-7.4,1-11,0c-3.6-1-7-2.9-10.7-3.6
					c-4.8-1-10.4-0.1-13.9-3.5c-3-2.8-3.2-7.5-2.2-11.5c0.5-2.2,1.4-4.4,1.4-6.7c-0.1-4.1-3-8-1.9-12c0.6-2.5,2.7-4.4,4.2-6.5
					c1.7-2.5,2.6-5.6,2.4-8.7c-0.2-3.2,3-5.9,5.5-7.9c2.5-2,5.5-3.3,8.5-4.4c7-2.7,14.3-4.5,21.8-4.7s15.1,1.3,21.6,4.9
					c1.8,1,3.2,2.5,4.1,4.4C450.9,99.9,450.9,100,451,100z"/>
				<path fill="#0A152A" d="M523.3,210.3c0,0,6.6-17.9-5.8-31.3s-27.9-11.1-27.9-11.1c-12.9-7.1-24-8.9-24-8.9
					c-10.5-11.1-20-13.4-20-13.4l-24.7,1.1l-24.7-1.1c0,0-9.5,2.4-20,13.4c0,0-11.1,1.8-24,8.9c0,0-15.5-2.4-27.9,11.1
					c-12.4,13.4-5.8,31.3-5.8,31.3s-16.8,21.8-7.9,45c0,0,14-30,50.1-35.8l15.4,35.8h44.8h44.8l15.4-35.8
					c36.1,5.8,50.1,35.8,50.1,35.8C540.2,232.1,523.3,210.3,523.3,210.3z"/>
				<path fill="#0A152A" d="M481.2,219.5c0,0-2.5,3.5-3.7,8.6c0,0-14.6-3-35.6-0.9s-33.7,1.8-47.4-3.9c-13.7-5.6-23.4-3-30.1,4.7
					c0,0,41.7,27.1,65,45.6c19.9,15.8,44.7,18.8,60.5,13.5c15.8-5.3,19-7,23.9-7c4.9,0,8.4-5.3,8.1-11.9c0,0,5.1-3.5,9.4-13
					C531.3,255.3,516,224,481.2,219.5z"/>
				<path fill="#E6E7E8" d="M463,156.3c-9.4-8.8-17.3-10.8-17.3-10.8l-24.7,1.1l-24.7-1.1c0,0-7.8,2-17.2,10.6l38.7,99.1h3.2h3.5
					L463,156.3z"/>
				<g>
					<path fill="#FDC06D" d="M446,100.3c0,0,1.3-6.4,5-5.5c3.7,0.9,4.2,6.8,2.9,10.9c-1.3,4.1-4.4,10-7.9,7.2V100.3z"/>
					<path fill="#DBA75F" d="M452.3,99.5c-0.1-0.4-0.2-0.9-0.4-1.3c-0.1-0.2-0.3-0.4-0.4-0.6c-0.2-0.2-0.4-0.3-0.6-0.4
						c-0.1-0.1-0.2-0.1-0.4-0.1l-0.1,0l-0.1,0c-0.1,0-0.1,0-0.2,0c-0.3,0-0.5,0.1-0.8,0.3c-0.4,0.3-0.7,0.6-1,1
						c-0.3,0.4-0.5,0.8-0.7,1.2c-0.2,0.4-0.4,0.8-0.5,1.2c-0.2,0.4-0.3,0.8-0.4,1.3l-0.1,0.5l0.5,0.1c0.1,0,0.2,0.1,0.3,0.1
						c0.1,0.1,0.2,0.1,0.3,0.2c0.2,0.1,0.4,0.3,0.5,0.5c0.1,0.1,0.1,0.2,0.2,0.3c0.1,0.1,0.1,0.2,0.1,0.4c0,0.1,0.1,0.2,0.1,0.4
						l0,0.2l0,0.2c0,0.2,0,0.3,0,0.4c0,0.1,0,0.3-0.1,0.4c-0.1,0.3-0.1,0.5-0.3,0.8c-0.1,0.3-0.2,0.5-0.4,0.7
						c-0.1,0.1-0.2,0.2-0.2,0.3c-0.1,0.1-0.2,0.2-0.2,0.3l-0.1,0.1l0,0.1c0,0.2,0,0.4,0,0.6c0,0.2,0,0.4,0.1,0.6
						c0.1,0.2,0.2,0.4,0.4,0.6c0.2,0.2,0.4,0.3,0.6,0.3c0.2,0.1,0.4,0.1,0.7,0.1c0.1,0,0.2,0,0.3,0c0.1,0,0.2-0.1,0.3-0.1
						c0.2-0.1,0.4-0.2,0.5-0.3c0.2-0.1,0.3-0.3,0.4-0.4c0.5-0.6,0.8-1.3,1-1.9c0.2-0.7,0.3-1.4,0.4-2.1c-0.2,0.7-0.4,1.3-0.7,1.9
						c-0.2,0.3-0.3,0.6-0.5,0.9c-0.2,0.3-0.4,0.5-0.6,0.8c-0.1,0.1-0.2,0.2-0.4,0.3c-0.1,0.1-0.3,0.1-0.4,0.2c-0.1,0-0.1,0-0.2,0
						c-0.1,0-0.2,0-0.2,0c-0.1,0-0.3,0-0.4-0.1c-0.1,0-0.2-0.1-0.3-0.2c-0.1-0.1-0.1-0.2-0.1-0.3c0-0.1-0.1-0.2-0.1-0.4
						c0-0.1,0-0.2,0-0.3c0.1-0.1,0.2-0.2,0.2-0.3c0.1-0.1,0.2-0.3,0.3-0.4c0.2-0.3,0.4-0.6,0.5-0.9c0.1-0.3,0.2-0.6,0.3-1
						c0-0.2,0.1-0.3,0.1-0.5c0-0.2,0-0.4,0-0.5l0-0.3l0-0.3c0-0.2,0-0.4-0.1-0.5c0-0.2-0.1-0.4-0.2-0.5c-0.1-0.2-0.2-0.3-0.3-0.5
						c-0.2-0.3-0.5-0.6-0.8-0.8c-0.2-0.1-0.3-0.2-0.5-0.3c0,0,0,0,0,0c0.1-0.3,0.1-0.5,0.2-0.8c0.1-0.4,0.3-0.8,0.4-1.2
						c0.2-0.4,0.3-0.8,0.5-1.1c0.2-0.3,0.4-0.7,0.7-0.9c0.1-0.1,0.3-0.2,0.4-0.2c0,0,0.1,0,0.1,0c0,0,0.1,0,0.1,0l0.1,0
						c0.1,0,0.2,0,0.3,0c0.2,0,0.3,0.1,0.5,0.2c0.1,0.1,0.3,0.3,0.4,0.4c0.2,0.3,0.4,0.7,0.5,1.1c0.1,0.4,0.2,0.8,0.3,1.3
						C452.4,100.4,452.3,100,452.3,99.5z"/>
					<path fill="#FDC06D" d="M395.5,100.3c0,0-1.3-6.4-5-5.5c-3.7,0.9-4.2,6.8-2.9,10.9c1.3,4.1,4.4,10,7.9,7.2V100.3z"/>
					<path fill="#DBA75F" d="M389.3,99.5c0.1-0.4,0.2-0.9,0.4-1.3c0.1-0.2,0.3-0.4,0.4-0.6c0.2-0.2,0.4-0.3,0.6-0.4
						c0.1-0.1,0.2-0.1,0.4-0.1l0.1,0l0.1,0c0.1,0,0.1,0,0.2,0c0.3,0,0.5,0.1,0.8,0.3c0.4,0.3,0.7,0.6,1,1c0.3,0.4,0.5,0.8,0.7,1.2
						c0.2,0.4,0.4,0.8,0.5,1.2c0.2,0.4,0.3,0.8,0.4,1.3l0.1,0.5l-0.5,0.1c-0.1,0-0.2,0.1-0.3,0.1c-0.1,0.1-0.2,0.1-0.3,0.2
						c-0.2,0.1-0.4,0.3-0.5,0.5c-0.1,0.1-0.1,0.2-0.2,0.3c-0.1,0.1-0.1,0.2-0.1,0.4c0,0.1-0.1,0.2-0.1,0.4l0,0.2l0,0.2
						c0,0.2,0,0.3,0,0.4c0,0.1,0,0.3,0.1,0.4c0.1,0.3,0.1,0.5,0.3,0.8c0.1,0.3,0.2,0.5,0.4,0.7c0.1,0.1,0.2,0.2,0.2,0.3
						c0.1,0.1,0.2,0.2,0.2,0.3l0.1,0.1l0,0.1c0,0.2,0,0.4,0,0.6c0,0.2,0,0.4-0.1,0.6c-0.1,0.2-0.2,0.4-0.4,0.6
						c-0.2,0.2-0.4,0.3-0.6,0.3c-0.2,0.1-0.4,0.1-0.7,0.1c-0.1,0-0.2,0-0.3,0c-0.1,0-0.2-0.1-0.3-0.1c-0.2-0.1-0.4-0.2-0.5-0.3
						c-0.2-0.1-0.3-0.3-0.4-0.4c-0.5-0.6-0.8-1.3-1-1.9c-0.2-0.7-0.3-1.4-0.4-2.1c0.2,0.7,0.4,1.3,0.7,1.9c0.2,0.3,0.3,0.6,0.5,0.9
						c0.2,0.3,0.4,0.5,0.6,0.8c0.1,0.1,0.2,0.2,0.4,0.3c0.1,0.1,0.3,0.1,0.4,0.2c0.1,0,0.1,0,0.2,0c0.1,0,0.2,0,0.2,0
						c0.1,0,0.3,0,0.4-0.1c0.1,0,0.2-0.1,0.3-0.2c0.1-0.1,0.1-0.2,0.1-0.3c0-0.1,0.1-0.2,0.1-0.4c0-0.1,0-0.2,0-0.3
						c-0.1-0.1-0.2-0.2-0.2-0.3c-0.1-0.1-0.2-0.3-0.3-0.4c-0.2-0.3-0.4-0.6-0.5-0.9c-0.1-0.3-0.2-0.6-0.3-1c0-0.2-0.1-0.3-0.1-0.5
						c0-0.2,0-0.4,0-0.5l0-0.3l0-0.3c0-0.2,0-0.4,0.1-0.5c0-0.2,0.1-0.4,0.2-0.5c0.1-0.2,0.2-0.3,0.3-0.5c0.2-0.3,0.5-0.6,0.8-0.8
						c0.2-0.1,0.3-0.2,0.5-0.3c0,0,0,0,0,0c-0.1-0.3-0.1-0.5-0.2-0.8c-0.1-0.4-0.3-0.8-0.4-1.2c-0.2-0.4-0.3-0.8-0.5-1.1
						c-0.2-0.3-0.4-0.7-0.7-0.9c-0.1-0.1-0.3-0.2-0.4-0.2c0,0-0.1,0-0.1,0c0,0-0.1,0-0.1,0l-0.1,0c-0.1,0-0.2,0-0.3,0
						c-0.2,0-0.3,0.1-0.5,0.2c-0.1,0.1-0.3,0.3-0.4,0.4c-0.2,0.3-0.4,0.7-0.5,1.1c-0.1,0.4-0.2,0.8-0.3,1.3
						C389.2,100.4,389.2,100,389.3,99.5z"/>
					<path fill="#FDC06D" d="M442.7,120h-21.9h-21.9l-2.6,25.5c0,0,6,13.4,24.6,13.4s24.6-13.4,24.6-13.4L442.7,120z"/>
					<path fill="#FFD38D" d="M449,111.9c-0.6-8.1-1.9-20.3-4-30c-3.5-15.8-24.2-15.4-24.2-15.4s-20.7-0.4-24.2,15.4
						c-2.1,9.6-3.4,21.9-4,30c-0.4,5.6,1.4,11.1,5.1,15.3c5.5,6.3,15,14.7,18.1,14.7c4.9,0,5.1,0,5.1,0s0.2,0,5.1,0
						c3.1,0,12.6-8.4,18.1-14.7C447.6,123,449.4,117.4,449,111.9z"/>
					<line fill="none" stroke="#26202B" stroke-width="2" stroke-miterlimit="10" x1="414.1" y1="92.7" x2="427.6" y2="92.7"/>
					<path fill="none" stroke="#26202B" stroke-width="2" stroke-miterlimit="10" d="M416,96.7c2.7-2.7,7.1-2.7,9.8,0"/>
					<g>
						<line fill="#24202B" x1="443.4" y1="94.7" x2="447.6" y2="95.7"/>
						
							<rect x="443.3" y="94.7" transform="matrix(0.9723 0.2336 -0.2336 0.9723 34.571 -101.4565)" fill="#26202B" width="4.3" height="1.1"/>
					</g>
					<g>
						<line fill="#24202B" x1="398.3" y1="94.7" x2="394.1" y2="95.7"/>
						
							<rect x="395.7" y="93" transform="matrix(0.2334 0.9724 -0.9724 0.2334 396.2686 -312.2885)" fill="#26202B" width="1.1" height="4.3"/>
					</g>
					<path fill="#FDC06D" d="M416.1,111.1h9.5c0,0-1,2.5-4.8,2.5S416.1,111.1,416.1,111.1z"/>
					<path fill="#DBA75F" d="M420.9,117.1c-10.5,0-12.4,2.9-12.4,2.9c3.3-1.3,12.4-1.4,12.4-1.4s9,0.1,12.4,1.4
						C433.2,120,431.3,117.1,420.9,117.1z"/>
					<g>
						<path fill="#594A42" d="M424.7,91.3c0,0,2,2.2,2.8,2.2s5.7-4.4,8.2-4.6c2.4-0.2,5.4,0.7,5.4,0.7s-4-3-7.1-2.6
							c-3.1,0.3-8.2,4.4-8.2,4.4H424.7z"/>
						<path fill="#594A42" d="M417,91.3c0,0-2,2.2-2.8,2.2s-5.7-4.4-8.2-4.6c-2.4-0.2-5.4,0.7-5.4,0.7s4-3,7.1-2.6
							c3.1,0.3,8.2,4.4,8.2,4.4H417z"/>
					</g>
					<path fill="#FDC06D" d="M420.8,119.8c-2.5,0-3.2,1.5-3.2,1.5h3.2h3.2C424,121.3,423.4,119.8,420.8,119.8z"/>
					<g>
						<path fill="#26202B" d="M418.2,95.5c0-2.4-2.3-4.3-8.5-4.3c-8.5,0-13.7,0.9-13.7,5.6c0,3.1,1.3,9.3,9.2,10.2
							C415.5,108,418.2,97.2,418.2,95.5z"/>
						<path fill="#26202B" d="M423.5,95.5c0-2.4,2.3-4.3,8.5-4.3c8.5,0,13.7,0.9,13.7,5.6c0,3.1-1.3,9.3-9.2,10.2
							C426.2,108,423.5,97.2,423.5,95.5z"/>
						<linearGradient id="SVGID_5_" gradientUnits="userSpaceOnUse" x1="434.5662" y1="90.6698" x2="434.5662" y2="99.6463">
							<stop  offset="0" style="stop-color:#FFFFFF"/>
							<stop  offset="1" style="stop-color:#000000;stop-opacity:0"/>
						</linearGradient>
						<path fill="url(#SVGID_5_)" d="M436.9,97.8c0.7,0.1,1.5,0.2,2.2,0.4c1.7,0.4,3.2,1,4.5,1.6c0.4-1.2,0.4-2.3,0.4-3
							c0-2.5-2-4-12.1-4c-4.3,0-6.9,1-6.9,2.7c0,0,0.3,2,1.4,4.2C429.3,98.1,432.7,97.2,436.9,97.8z"/>
						<linearGradient id="SVGID_6_" gradientUnits="userSpaceOnUse" x1="407.1484" y1="90.3189" x2="407.1484" y2="100.1468">
							<stop  offset="0" style="stop-color:#FFFFFF"/>
							<stop  offset="1" style="stop-color:#000000;stop-opacity:0"/>
						</linearGradient>
						<path fill="url(#SVGID_6_)" d="M404.8,97.8c-0.7,0.1-1.5,0.2-2.2,0.4c-1.7,0.4-3.2,1-4.5,1.6c-0.4-1.2-0.4-2.3-0.4-3
							c0-2.5,2-4,12.1-4c4.3,0,6.9,1,6.9,2.7c0,0-0.3,2-1.4,4.2C412.4,98.1,409,97.2,404.8,97.8z"/>
					</g>
				</g>
				<polygon fill="#0A152A" points="424.7,169.7 431,165.7 430.9,158.9 420.8,158.9 410.8,158.9 410.7,165.7 417,169.7 409.2,236.5 
					420.8,236.5 432.5,236.5 				"/>
				<g>
					<path fill="#1E2940" d="M387,148.9L421,251.7h-21.6l-35-49.9l10.6-20.6l-14.3-3.4l7.1-18.9C367.8,158.9,378,155.9,387,148.9z"
						/>
					<path fill="#1E2940" d="M455,148.9l-34.1,102.8h21.6l35-49.9L467,181.2l14.3-3.4l-7.1-18.9C474.2,158.9,464,155.9,455,148.9z"
						/>
				</g>
				<g>
					<path fill="#020B22" d="M521.9,268.2c0,0,5.1-3.5,9.4-13c0,0-0.9-1.9-2.8-4.8c-4.1,5.6-8,7.6-8,7.6c-1.8-5.3-7-8.5-7-8.5
						c2.5,13.9-1.8,18.7-17.2,24.7c-15.4,6-36.8,3.5-67.4-13.7c-24.3-13.7-50.9-30.1-60.6-36.1c-1.4,1-2.7,2.3-3.9,3.6
						c0,0,41.7,27.1,65,45.6c19.9,15.8,44.7,18.8,60.5,13.5c15.8-5.3,19-7,23.9-7S522.3,274.9,521.9,268.2z"/>
					<path fill="#020B22" d="M528.5,250.5L528.5,250.5c1.9,2.9,2.7,4.8,2.7,4.8c3.3-8.6,3.1-17.1,1.5-24.3
						C532.2,242.9,528.5,250.5,528.5,250.5z"/>
				</g>
				<path fill="#0A152A" d="M360.8,219.5c0,0,2.5,3.5,3.7,8.6c0,0,14.6-3,35.6-0.9s33.7,1.8,47.4-3.9c13.7-5.6,23.4-3,30.1,4.7
					c0,0-41.7,27.1-65,45.6c-19.9,15.8-44.7,18.8-60.5,13.5c-15.8-5.3-19-7-23.9-7c-4.9,0-8.4-5.3-8.1-11.9c0,0-5.1-3.5-9.4-13
					C310.7,255.3,326,224,360.8,219.5z"/>
				<g>
					<path fill="#020B22" d="M320,268.2c0,0-5.1-3.5-9.4-13c0,0,0.9-1.9,2.8-4.8c4.1,5.6,8,7.6,8,7.6c1.8-5.3,7-8.5,7-8.5
						c-2.5,13.9,1.8,18.7,17.2,24.7c15.4,6,36.8,3.5,67.4-13.7c24.3-13.7,50.9-30.1,60.6-36.1c1.4,1,2.7,2.3,3.9,3.6
						c0,0-41.7,27.1-65,45.6c-19.9,15.8-44.7,18.8-60.5,13.5c-15.8-5.3-19-7-23.9-7S319.6,274.9,320,268.2z"/>
					<path fill="#020B22" d="M313.4,250.5L313.4,250.5c-1.9,2.9-2.7,4.8-2.7,4.8c-3.3-8.6-3.1-17.1-1.5-24.3
						C309.7,242.9,313.4,250.5,313.4,250.5z"/>
				</g>
				<path fill="#FDC06D" d="M450,222.4l9,18c10.8-7.3,18.6-12.4,18.6-12.4C471.3,220.8,462.3,218.1,450,222.4z"/>
				<g>
					<path fill="#FDC06D" d="M380.6,223.2c0,0-10.5-4.9-13.6-5c-3-0.1-10.4,4.5-11.7,7.3c-1.2,2.8,1.6,5,1.6,5L380.6,223.2z"/>
					<path fill="#FDC06D" d="M381.6,218.7c0,0-9.5,0.9-13.9,5.4c-1.6,1.7-6.8,11.3-6.9,14.1c-0.2,2.8,4.8,4,4.8,4s7.2-13.7,9.4-14.9
						s14.5-5.5,14.5-5.5S384.4,218.1,381.6,218.7z"/>
					<path fill="#FDC06D" d="M393.6,223.3c-1.9-2.5-5.2-3.4-8.1-2.2c-3.6,1.5-8,3.8-9.7,6.4c-3,4.7-4.5,15.1-4.1,17.9
						c0.4,2.8,5.4,3.1,5.4,3.1s4.4-14.9,5.8-16.7C384.2,230.1,393.6,223.3,393.6,223.3L393.6,223.3z"/>
					<path fill="#FDC06D" d="M396.7,225.1c0,0-2.4-4.2-5.6-2.9c-3.2,1.4-7.4,8.9-7.9,11c-0.5,2.1,0.1,10.5,2.4,11.2
						c2.3,0.7,4-0.2,4-0.2s1.1-8.8,1.5-10.1C391.6,232.9,396.7,225.1,396.7,225.1z"/>
				</g>
				<g>
					<g>
						<path fill="#FFFFFF" d="M420.8,158.9c0,0,3.2,0.2,3.4,0.8c0.2,0.6,7.1,14.6,7.1,14.6s12.5-4.9,17.1-8.9
							c4.6-4,7.7-15.5,7.7-15.5l-10.3-8c0,0-6.9,11.5-24.1,15.8C421.2,157.8,421.1,158.5,420.8,158.9z"/>
					</g>
					<g>
						<path fill="#FFFFFF" d="M420.9,158.9c0,0-3.2,0.2-3.4,0.8c-0.2,0.6-7.1,14.6-7.1,14.6s-12.5-4.9-17.1-8.9
							c-4.6-4-7.7-15.5-7.7-15.5l10.3-8c0,0,6.9,11.5,24.1,15.8C420.5,157.8,420.6,158.5,420.9,158.9z"/>
					</g>
				</g>
				<path fill="#3C2415" d="M444,69.1c-5.8-7.1-12.9-8.7-23.1-8.7v0c0,0,0,0,0,0s0,0,0,0v0c-10.3,0-17.3,1.6-23.1,8.7
					c-5.8,7.2-7.1,25.7-7.1,25.7c2.8,0.2,2.8,7.4,2.8,7.4l2.8-9.5c0,0,3.3-3.8,4.6-10.5c1.3-6.7,9.3-9,13.5-6.5
					c3.7,2.2,6.2,2.5,6.6,2.5v0c0,0,0,0,0,0c0,0,0,0,0,0v0c0.5,0,2.9-0.3,6.6-2.5c4.2-2.5,12.3-0.2,13.5,6.5
					c1.3,6.7,4.6,10.5,4.6,10.5l2.8,9.5c0,0,0-7.3,2.8-7.4C451.1,94.8,449.8,76.2,444,69.1z"/>
				<g>
					<path fill="#603913" d="M399.2,67.3c1.8,3,3.6,6,5.4,9c0.9-0.6,1.8-1,2.8-1.2c-0.6-1.2-1.3-2.4-1.5-2.9c-0.5-1.4-1.3-2.7-2-4.1
						c-0.6-1.1-1.2-2.2-1.8-3.3C401.1,65.5,400.2,66.4,399.2,67.3z"/>
					<path fill="#603913" d="M437.6,76.7c1.9-2.8,3.9-5.6,5.8-8.3c-1-1.1-2-2.1-3-2.9c-1.8,3.3-3.7,6.5-5.5,9.8
						C435.8,75.6,436.8,76.1,437.6,76.7z"/>
					<path fill="#603913" d="M447.6,76.2c-0.4-1.1-0.8-2.1-1.2-3.1c-2.1,2.1-4.3,4.1-6.6,6c0.3,0.5,0.6,1.1,0.9,1.8
						C443,79.3,445.3,77.8,447.6,76.2z"/>
					<path fill="#603913" d="M449.1,81.7c-2.4,1.2-4.9,2.5-7.3,3.7c0.2,0.6,0.4,1.2,0.6,1.8c0.2-0.1,0.4-0.1,0.7-0.2
						c2.3-0.7,4.4-1.6,6.6-2.7C449.5,83.4,449.3,82.5,449.1,81.7z"/>
					<path fill="#603913" d="M396,78.5c-0.8-0.4-1.5-0.7-2.3-1.1c-0.4,1.2-0.7,2.5-1,3.7c2.6,0.7,5.2,1.4,7.8,2.1
						c0.1-0.4,0.2-0.7,0.2-1.1c0.1-0.4,0.2-0.8,0.3-1.1C399.3,80.1,397.6,79.3,396,78.5z"/>
				</g>
				<path fill="#A97C50" d="M449,111.9c-0.3-4.2-0.8-9.5-1.5-15c-0.6-0.4-1-0.6-1-0.6s0.2,12.5-0.6,13.6c-0.8,1.1-9.3,7.8-13.2,7.8
					c-2.6,0-7.1,0-9.8,0l9.4,2.8c0,0-0.7,8.3-2.5,11c-1.7,2.6-8.7,2.1-8.8,2.1c-0.1,0-7.1,0.5-8.8-2.1c-1.7-2.6-2.5-11-2.5-11
					l9.4-2.8c-2.6,0-7.6,0-10.3,0c-3.8,0-12.4-6.7-13.2-7.8c-0.8-1.1-0.6-13.6-0.6-13.6s-0.4,0.2-1,0.6c-0.7,5.5-1.2,10.8-1.5,15
					c-0.4,5.6,1.4,11.1,5.1,15.3c5.5,6.3,15,14.7,18.1,14.7c4.1,0,4.9,0,5.1,0c0,0,0,0,0,0s0,0,0.1,0c0,0,0,0,0,0c0.1,0,0.9,0,5.1,0
					c3.1,0,12.6-8.4,18.1-14.7C447.6,123,449.5,117.4,449,111.9z"/>
				<path fill="#3C2415" d="M433.6,116.7c-1.3-1.7-12.5-3.5-12.5-3.5s-11.2,1.8-12.5,3.5c-1.3,1.7-1.3,5.4-1.3,5.4s5.9-1.9,13.9-1.9
					s13.9,1.9,13.9,1.9S434.9,118.4,433.6,116.7z"/>
			</g>
			<path fill="#F0AD66" d="M421,147.6c-4.6,0-5.7-2.1-5.7-2.1c0,3.8,3.7,4.5,5.7,4.5s5.7-0.7,5.7-4.5
				C426.7,145.5,425.6,147.6,421,147.6z"/>
			<g>
				<path fill="#414042" d="M452.7,102.7l1.3,4.8c0,0-4.3,7.7-5.1,8.3c-0.8,0.6-3.8,0.5-3.8,0.5l-1-2.2L452.7,102.7z"/>
				<path fill="#58595B" d="M447.7,98.5l-3.6,15.6c0,0,3.5,0.5,4.4-0.4c0.9-1,4.3-10.3,4.2-10.9C452.6,102.1,447.7,98.5,447.7,98.5z
					"/>
				<g>
					<path fill="#414042" d="M438.4,122.1l-0.4-1.8c0,0,4.5-1,6.3-2.1c0.3-0.4,1-2,1.5-3.4l1.8,0.6c-1.3,3.8-2,4.2-2.2,4.3
						C443.2,121,438.6,122.1,438.4,122.1z"/>
				</g>
				<path fill="#414042" d="M436.8,121.7L436.8,121.7c0.2,0.7,1,1.1,1.7,0.9l1.6-0.5c0.7-0.2,1.1-1,0.9-1.7l0,0
					c-0.2-0.7-1-1.1-1.7-0.9l-1.6,0.5C437,120.3,436.5,121,436.8,121.7z"/>
			</g>
		</g>
		<g>
			<g>
				<path fill="#0A152A" d="M238.9,210.3c0,0,6.6-17.9-5.8-31.3c-12.4-13.4-27.9-11.1-27.9-11.1c-12.9-7.1-24-8.9-24-8.9
					c-10.5-11.1-20-13.4-20-13.4l-24.7,1.1l-24.7-1.1c0,0-9.5,2.4-20,13.4c0,0-11.1,1.8-24,8.9c0,0-15.5-2.4-27.9,11.1
					c-12.4,13.4-5.8,31.3-5.8,31.3s-16.8,21.8-7.9,45c0,0,14-30,50.1-35.8l15.4,35.8h44.8h44.8l15.4-35.8
					c36.1,5.8,50.1,35.8,50.1,35.8C255.8,232.1,238.9,210.3,238.9,210.3z"/>
				<path fill="#FDC06D" d="M196.8,219.5c0,0-2.5,3.5-3.7,8.6c0,0-14.6-3-35.6-0.9c-21.1,2.1-33.7,1.8-47.4-3.9s-23.4-3-30.1,4.7
					c0,0,41.7,27.1,65,45.6c19.9,15.8,44.7,18.8,60.5,13.5s19-7,23.9-7s8.4-5.3,8.1-11.9c0,0,5.1-3.5,9.4-13
					C246.9,255.3,231.6,224,196.8,219.5z"/>
				<path fill="#F0AD66" d="M237.5,268.2c0,0,5.1-3.5,9.4-13c0,0-0.9-1.9-2.8-4.8c-4.1,5.6-8,7.6-8,7.6c-1.8-5.3-7-8.5-7-8.5
					c2.5,13.9-1.8,18.7-17.2,24.7c-15.4,6-36.8,3.5-67.4-13.7c-24.3-13.7-50.9-30.1-60.6-36.1c-1.4,1-2.7,2.3-3.9,3.6
					c0,0,41.7,27.1,65,45.6c19.9,15.8,44.7,18.8,60.5,13.5s19-7,23.9-7C234.4,280.2,237.9,274.9,237.5,268.2z"/>
				<g>
					<path fill="#FDC06D" d="M161.6,100.3c0,0,1.3-6.4,5-5.5c3.7,0.9,4.2,6.8,2.9,10.9c-1.3,4.1-4.4,10-7.9,7.2V100.3z"/>
					<path fill="#DBA75F" d="M167.9,99.5c-0.1-0.4-0.2-0.9-0.4-1.3c-0.1-0.2-0.3-0.4-0.4-0.6c-0.2-0.2-0.4-0.3-0.6-0.4
						c-0.1-0.1-0.2-0.1-0.4-0.1l-0.1,0l-0.1,0c-0.1,0-0.1,0-0.2,0c-0.3,0-0.5,0.1-0.8,0.3c-0.4,0.3-0.7,0.6-1,1
						c-0.3,0.4-0.5,0.8-0.7,1.2c-0.2,0.4-0.4,0.8-0.5,1.2c-0.2,0.4-0.3,0.8-0.4,1.3l-0.1,0.5l0.5,0.1c0.1,0,0.2,0.1,0.3,0.1
						c0.1,0.1,0.2,0.1,0.3,0.2c0.2,0.1,0.4,0.3,0.5,0.5c0.1,0.1,0.1,0.2,0.2,0.3c0.1,0.1,0.1,0.2,0.1,0.4c0,0.1,0.1,0.2,0.1,0.4
						l0,0.2l0,0.2c0,0.2,0,0.3,0,0.4c0,0.1,0,0.3-0.1,0.4c-0.1,0.3-0.1,0.5-0.3,0.8c-0.1,0.3-0.2,0.5-0.4,0.7
						c-0.1,0.1-0.2,0.2-0.2,0.3c-0.1,0.1-0.2,0.2-0.2,0.3l-0.1,0.1l0,0.1c0,0.2,0,0.4,0,0.6c0,0.2,0,0.4,0.1,0.6
						c0.1,0.2,0.2,0.4,0.4,0.6c0.2,0.2,0.4,0.3,0.6,0.3c0.2,0.1,0.4,0.1,0.7,0.1c0.1,0,0.2,0,0.3,0c0.1,0,0.2-0.1,0.3-0.1
						c0.2-0.1,0.4-0.2,0.5-0.3c0.2-0.1,0.3-0.3,0.4-0.4c0.5-0.6,0.8-1.3,1-1.9c0.2-0.7,0.3-1.4,0.4-2.1c-0.2,0.7-0.4,1.3-0.7,1.9
						c-0.2,0.3-0.3,0.6-0.5,0.9c-0.2,0.3-0.4,0.5-0.6,0.8c-0.1,0.1-0.2,0.2-0.4,0.3c-0.1,0.1-0.3,0.1-0.4,0.2c-0.1,0-0.1,0-0.2,0
						c-0.1,0-0.2,0-0.2,0c-0.1,0-0.3,0-0.4-0.1c-0.1,0-0.2-0.1-0.3-0.2c-0.1-0.1-0.1-0.2-0.1-0.3c0-0.1-0.1-0.2-0.1-0.4
						c0-0.1,0-0.2,0-0.3c0.1-0.1,0.2-0.2,0.2-0.3c0.1-0.1,0.2-0.3,0.3-0.4c0.2-0.3,0.4-0.6,0.5-0.9c0.1-0.3,0.2-0.6,0.3-1
						c0-0.2,0.1-0.3,0.1-0.5c0-0.2,0-0.4,0-0.5l0-0.3l0-0.3c0-0.2,0-0.4-0.1-0.5c0-0.2-0.1-0.4-0.2-0.5c-0.1-0.2-0.2-0.3-0.3-0.5
						c-0.2-0.3-0.5-0.6-0.8-0.8c-0.2-0.1-0.3-0.2-0.5-0.3c0,0,0,0,0,0c0.1-0.3,0.1-0.5,0.2-0.8c0.1-0.4,0.3-0.8,0.4-1.2
						c0.2-0.4,0.3-0.8,0.5-1.1c0.2-0.3,0.4-0.7,0.7-0.9c0.1-0.1,0.3-0.2,0.4-0.2c0,0,0.1,0,0.1,0c0,0,0.1,0,0.1,0l0.1,0
						c0.1,0,0.2,0,0.3,0c0.2,0,0.3,0.1,0.5,0.2c0.1,0.1,0.3,0.3,0.4,0.4c0.2,0.3,0.4,0.7,0.5,1.1c0.1,0.4,0.2,0.8,0.3,1.3
						C167.9,100.4,167.9,100,167.9,99.5z"/>
					<path fill="#FDC06D" d="M111,100.3c0,0-1.3-6.4-5-5.5c-3.7,0.9-4.2,6.8-2.9,10.9c1.3,4.1,4.4,10,7.9,7.2V100.3z"/>
					<path fill="#DBA75F" d="M104.9,99.5c0.1-0.4,0.2-0.9,0.4-1.3c0.1-0.2,0.3-0.4,0.4-0.6c0.2-0.2,0.4-0.3,0.6-0.4
						c0.1-0.1,0.2-0.1,0.4-0.1l0.1,0l0.1,0c0.1,0,0.1,0,0.2,0c0.3,0,0.5,0.1,0.8,0.3c0.4,0.3,0.7,0.6,1,1c0.3,0.4,0.5,0.8,0.7,1.2
						c0.2,0.4,0.4,0.8,0.5,1.2c0.2,0.4,0.3,0.8,0.4,1.3l0.1,0.5l-0.5,0.1c-0.1,0-0.2,0.1-0.3,0.1c-0.1,0.1-0.2,0.1-0.3,0.2
						c-0.2,0.1-0.4,0.3-0.5,0.5c-0.1,0.1-0.1,0.2-0.2,0.3c-0.1,0.1-0.1,0.2-0.1,0.4c0,0.1-0.1,0.2-0.1,0.4l0,0.2l0,0.2
						c0,0.2,0,0.3,0,0.4c0,0.1,0,0.3,0.1,0.4c0.1,0.3,0.1,0.5,0.3,0.8c0.1,0.3,0.2,0.5,0.4,0.7c0.1,0.1,0.2,0.2,0.2,0.3
						c0.1,0.1,0.2,0.2,0.2,0.3l0.1,0.1l0,0.1c0,0.2,0,0.4,0,0.6c0,0.2,0,0.4-0.1,0.6c-0.1,0.2-0.2,0.4-0.4,0.6
						c-0.2,0.2-0.4,0.3-0.6,0.3c-0.2,0.1-0.4,0.1-0.7,0.1c-0.1,0-0.2,0-0.3,0c-0.1,0-0.2-0.1-0.3-0.1c-0.2-0.1-0.4-0.2-0.5-0.3
						c-0.2-0.1-0.3-0.3-0.4-0.4c-0.5-0.6-0.8-1.3-1-1.9c-0.2-0.7-0.3-1.4-0.4-2.1c0.2,0.7,0.4,1.3,0.7,1.9c0.2,0.3,0.3,0.6,0.5,0.9
						c0.2,0.3,0.4,0.5,0.6,0.8c0.1,0.1,0.2,0.2,0.4,0.3c0.1,0.1,0.3,0.1,0.4,0.2c0.1,0,0.1,0,0.2,0c0.1,0,0.2,0,0.2,0
						c0.1,0,0.3,0,0.4-0.1c0.1,0,0.2-0.1,0.3-0.2c0.1-0.1,0.1-0.2,0.1-0.3c0-0.1,0.1-0.2,0.1-0.4c0-0.1,0-0.2,0-0.3
						c-0.1-0.1-0.2-0.2-0.2-0.3c-0.1-0.1-0.2-0.3-0.3-0.4c-0.2-0.3-0.4-0.6-0.5-0.9c-0.1-0.3-0.2-0.6-0.3-1c0-0.2-0.1-0.3-0.1-0.5
						c0-0.2,0-0.4,0-0.5l0-0.3l0-0.3c0-0.2,0-0.4,0.1-0.5c0-0.2,0.1-0.4,0.2-0.5c0.1-0.2,0.2-0.3,0.3-0.5c0.2-0.3,0.5-0.6,0.8-0.8
						c0.2-0.1,0.3-0.2,0.5-0.3c0,0,0,0,0,0c-0.1-0.3-0.1-0.5-0.2-0.8c-0.1-0.4-0.3-0.8-0.4-1.2c-0.2-0.4-0.3-0.8-0.5-1.1
						c-0.2-0.3-0.4-0.7-0.7-0.9c-0.1-0.1-0.3-0.2-0.4-0.2c0,0-0.1,0-0.1,0c0,0-0.1,0-0.1,0l-0.1,0c-0.1,0-0.2,0-0.3,0
						c-0.2,0-0.3,0.1-0.5,0.2c-0.1,0.1-0.3,0.3-0.4,0.4c-0.2,0.3-0.4,0.7-0.5,1.1c-0.1,0.4-0.2,0.8-0.3,1.3
						C104.8,100.4,104.8,100,104.9,99.5z"/>
					<path fill="#FDC06D" d="M158.3,120h-21.9h-21.9l-2.6,25.5c0,0,6,13.4,24.6,13.4s24.6-13.4,24.6-13.4L158.3,120z"/>
					<path fill="#FFD38D" d="M164.6,111.9c-0.6-8.1-1.9-20.3-4-30c-3.5-15.8-24.2-15.4-24.2-15.4s-20.7-0.4-24.2,15.4
						c-2.1,9.6-3.4,21.9-4,30c-0.4,5.6,1.4,11.1,5.1,15.3c5.5,6.3,15,14.7,18.1,14.7c4.9,0,5.1,0,5.1,0s0.2,0,5.1,0
						c3.1,0,12.6-8.4,18.1-14.7C163.2,123,165,117.4,164.6,111.9z"/>
					<line fill="none" stroke="#26202B" stroke-width="2" stroke-miterlimit="10" x1="129.7" y1="92.7" x2="143.2" y2="92.7"/>
					<path fill="none" stroke="#26202B" stroke-width="2" stroke-miterlimit="10" d="M131.6,96.7c2.7-2.7,7.1-2.7,9.8,0"/>
					<g>
						<line fill="#24202B" x1="159" y1="94.7" x2="163.2" y2="95.7"/>
						
							<rect x="158.9" y="94.7" transform="matrix(0.9723 0.2336 -0.2336 0.9723 26.6991 -35.0055)" fill="#26202B" width="4.3" height="1.1"/>
					</g>
					<g>
						<line fill="#24202B" x1="113.9" y1="94.7" x2="109.7" y2="95.7"/>
						
							<rect x="111.3" y="93" transform="matrix(0.2334 0.9724 -0.9724 0.2334 178.2525 -35.7361)" fill="#26202B" width="1.1" height="4.3"/>
					</g>
					<path fill="#FDC06D" d="M131.7,111.1h9.5c0,0-1,2.5-4.8,2.5S131.7,111.1,131.7,111.1z"/>
					<path fill="#DBA75F" d="M136.4,117.1c-10.5,0-12.4,2.9-12.4,2.9c3.3-1.3,12.4-1.4,12.4-1.4s9,0.1,12.4,1.4
						C148.8,120,146.9,117.1,136.4,117.1z"/>
					<g>
						<path fill="#594A42" d="M140.3,91.3c0,0,2,2.2,2.8,2.2c0.8,0,5.7-4.4,8.2-4.6c2.4-0.2,5.4,0.7,5.4,0.7s-4-3-7.1-2.6
							c-3.1,0.3-8.2,4.4-8.2,4.4H140.3z"/>
						<path fill="#594A42" d="M132.6,91.3c0,0-2,2.2-2.8,2.2c-0.8,0-5.7-4.4-8.2-4.6c-2.4-0.2-5.4,0.7-5.4,0.7s4-3,7.1-2.6
							c3.1,0.3,8.2,4.4,8.2,4.4H132.6z"/>
					</g>
					<path fill="#FDC06D" d="M136.4,119.8c-2.5,0-3.2,1.5-3.2,1.5h3.2h3.2C139.6,121.3,139,119.8,136.4,119.8z"/>
					<g>
						<path fill="#26202B" d="M133.8,95.5c0-2.4-2.3-4.3-8.5-4.3c-8.5,0-13.7,0.9-13.7,5.6c0,3.1,1.3,9.3,9.2,10.2
							C131.1,108,133.8,97.2,133.8,95.5z"/>
						<path fill="#26202B" d="M139.1,95.5c0-2.4,2.3-4.3,8.5-4.3c8.5,0,13.7,0.9,13.7,5.6c0,3.1-1.3,9.3-9.2,10.2
							C141.8,108,139.1,97.2,139.1,95.5z"/>
						<linearGradient id="SVGID_7_" gradientUnits="userSpaceOnUse" x1="150.1552" y1="90.6698" x2="150.1552" y2="99.6463">
							<stop  offset="0" style="stop-color:#FFFFFF"/>
							<stop  offset="1" style="stop-color:#000000;stop-opacity:0"/>
						</linearGradient>
						<path fill="url(#SVGID_7_)" d="M152.5,97.8c0.7,0.1,1.5,0.2,2.2,0.4c1.7,0.4,3.2,1,4.5,1.6c0.4-1.2,0.4-2.3,0.4-3
							c0-2.5-2-4-12.1-4c-4.3,0-6.9,1-6.9,2.7c0,0,0.3,2,1.4,4.2C144.9,98.1,148.3,97.2,152.5,97.8z"/>
						<linearGradient id="SVGID_8_" gradientUnits="userSpaceOnUse" x1="122.7373" y1="90.3189" x2="122.7373" y2="100.1468">
							<stop  offset="0" style="stop-color:#FFFFFF"/>
							<stop  offset="1" style="stop-color:#000000;stop-opacity:0"/>
						</linearGradient>
						<path fill="url(#SVGID_8_)" d="M120.4,97.8c-0.7,0.1-1.5,0.2-2.2,0.4c-1.7,0.4-3.2,1-4.5,1.6c-0.4-1.2-0.4-2.3-0.4-3
							c0-2.5,2-4,12.1-4c4.3,0,6.9,1,6.9,2.7c0,0-0.3,2-1.4,4.2C128,98.1,124.6,97.2,120.4,97.8z"/>
					</g>
					<path fill="#594A42" d="M150.1,115.8c-4.1-1.7-13.7-2.6-13.7-2.6s-9.6,0.9-13.7,2.6c-4.1,1.7-5.4,15.9-4.6,17.9
						c0.8,2,8.2,8.4,12.5,9.6c3.9,1.1,5.5,1.1,5.8,1.1c0.3,0,1.8,0,5.8-1.1c4.3-1.2,11.7-7.6,12.5-9.6
						C155.5,131.7,154.2,117.5,150.1,115.8z M151.1,132.5c-1.2,1.6-8.8,6.2-9.9,5.8c-1.1-0.4-2.9-10.4-2.9-10.4l-2,0.1l-2-0.1
						c0,0-1.8,10-2.9,10.4c-1.1,0.4-8.7-4.2-9.9-5.8s0.9-12.5,2-13.9s8.2-3.2,12.8-3.2c4.5,0,11.7,1.7,12.8,3.2
						S152.3,130.9,151.1,132.5z"/>
					<path fill="#FFE3B7" d="M114.6,86.1c-0.1-0.6,0.6-6.8,4-10.3c3.4-3.4,7.1-4.7,8.2-4.7c1.5,0-2.4,4-6.1,8.5
						S114.7,87.1,114.6,86.1z"/>
				</g>
				<path fill="#FFD38D" d="M76.3,219.5c0,0,2.5,3.5,3.7,8.6c0,0,14.6-3,35.6-0.9c21.1,2.1,33.7,1.8,47.4-3.9
					c13.7-5.6,23.4-3,30.1,4.7c0,0-41.7,27.1-65,45.6c-19.9,15.8-44.7,18.8-60.5,13.5s-19-7-23.9-7s-8.4-5.3-8.1-11.9
					c0,0-5.1-3.5-9.4-13C26.3,255.3,41.6,224,76.3,219.5z"/>
				<g>
					<path fill="#FDC06D" d="M96.1,223.2c0,0-10.5-4.9-13.6-5c-3-0.1-10.4,4.5-11.7,7.3s1.6,5,1.6,5L96.1,223.2z"/>
					<path fill="#FDC06D" d="M97.2,218.7c0,0-9.5,0.9-13.9,5.4c-1.6,1.7-6.8,11.3-6.9,14.1c-0.2,2.8,4.8,4,4.8,4s7.2-13.7,9.4-14.9
						c2.2-1.2,14.5-5.5,14.5-5.5S100,218.1,97.2,218.7z"/>
					<path fill="#FDC06D" d="M109.2,223.3c-1.9-2.5-5.2-3.4-8.1-2.2c-3.6,1.5-8,3.8-9.7,6.4c-3,4.7-4.5,15.1-4.1,17.9
						s5.4,3.1,5.4,3.1s4.4-14.9,5.8-16.7C99.8,230.1,109.2,223.3,109.2,223.3L109.2,223.3z"/>
					<path fill="#FDC06D" d="M112.3,225.1c0,0-2.4-4.2-5.6-2.9c-3.2,1.4-7.4,8.9-7.9,11s0.1,10.5,2.4,11.2c2.3,0.7,4-0.2,4-0.2
						s1.1-8.8,1.5-10.1C107.2,232.9,112.3,225.1,112.3,225.1z"/>
				</g>
				<path fill="#F4C386" d="M35.6,268.2c0,0-5.1-3.5-9.4-13c0,0,0.9-1.9,2.8-4.8c4.1,5.6,8,7.6,8,7.6c1.8-5.3,7-8.5,7-8.5
					c-2.5,13.9,1.8,18.7,17.2,24.7c15.4,6,36.8,3.5,67.4-13.7c24.3-13.7,50.9-30.1,60.6-36.1c1.4,1,2.7,2.3,3.9,3.6
					c0,0-41.7,27.1-65,45.6c-19.9,15.8-44.7,18.8-60.5,13.5s-19-7-23.9-7S35.3,274.9,35.6,268.2z"/>
			</g>
			<path fill="#1E2940" d="M198.8,172.1c-27.9-7.9-62.3,2.1-62.3,2.1s-34.5-10-62.3-2.1c0,0,29.8-2.7,58.4,6.9
				c2.1,13.6,4,39.2,4,39.2s1.8-25.5,4-39.2C169,169.4,198.8,172.1,198.8,172.1z"/>
			<path fill="#F0AD66" d="M136.6,147.6c-4.6,0-5.7-2.1-5.7-2.1c0,3.8,3.7,4.5,5.7,4.5c2,0,5.7-0.7,5.7-4.5
				C142.3,145.5,141.2,147.6,136.6,147.6z"/>
			<g>
				<path fill="#414042" d="M168.3,102.7l1.3,4.8c0,0-4.3,7.7-5.1,8.3c-0.8,0.6-3.8,0.5-3.8,0.5l-1-2.2L168.3,102.7z"/>
				<path fill="#58595B" d="M163.3,98.5l-3.6,15.6c0,0,3.5,0.5,4.4-0.4c0.9-1,4.3-10.3,4.2-10.9C168.2,102.1,163.3,98.5,163.3,98.5z
					"/>
				<g>
					<path fill="#414042" d="M153.9,122.1l-0.4-1.8c0,0,4.5-1,6.3-2.1c0.3-0.4,1-2,1.5-3.4l1.8,0.6c-1.3,3.8-2,4.2-2.2,4.3
						C158.8,121,154.1,122.1,153.9,122.1z"/>
				</g>
				<path fill="#414042" d="M152.3,121.7L152.3,121.7c0.2,0.7,1,1.1,1.7,0.9l1.6-0.5c0.7-0.2,1.1-1,0.9-1.7l0,0
					c-0.2-0.7-1-1.1-1.7-0.9l-1.6,0.5C152.5,120.3,152.1,121,152.3,121.7z"/>
			</g>
		</g>
		<g>
			<path fill="#0A152A" d="M807.7,210.3c0,0,6.6-17.9-5.8-31.3c-12.4-13.4-27.9-11.1-27.9-11.1c-12.9-7.1-24-8.9-24-8.9
				c-10.5-11.1-20-13.4-20-13.4l-24.7,1.1l-24.7-1.1c0,0-9.5,2.4-20,13.4c0,0-11.1,1.8-24,8.9c0,0-15.5-2.4-27.9,11.1
				c-12.4,13.4-5.8,31.3-5.8,31.3s-16.8,21.8-7.9,45c0,0,14-30,50.1-35.8l15.4,35.8h44.8h44.8l15.4-35.8
				c36.1,5.8,50.1,35.8,50.1,35.8C824.6,232.1,807.7,210.3,807.7,210.3z"/>
			<path fill="#FDC06D" d="M765.6,219.5c0,0-2.5,3.5-3.7,8.6c0,0-14.6-3-35.6-0.9c-21.1,2.1-33.7,1.8-47.4-3.9s-23.4-3-30.1,4.7
				c0,0,41.7,27.1,65,45.6c19.9,15.8,44.7,18.8,60.5,13.5s19-7,23.9-7c4.9,0,8.4-5.3,8.1-11.9c0,0,5.1-3.5,9.4-13
				C815.7,255.3,800.4,224,765.6,219.5z"/>
			<path fill="#F0AD66" d="M806.3,268.2c0,0,5.1-3.5,9.4-13c0,0-0.9-1.9-2.8-4.8c-4.1,5.6-8,7.6-8,7.6c-1.8-5.3-7-8.5-7-8.5
				c2.5,13.9-1.8,18.7-17.2,24.7c-15.4,6-36.8,3.5-67.4-13.7c-24.3-13.7-50.9-30.1-60.6-36.1c-1.4,1-2.7,2.3-3.9,3.6
				c0,0,41.7,27.1,65,45.6c19.9,15.8,44.7,18.8,60.5,13.5s19-7,23.9-7S806.7,274.9,806.3,268.2z"/>
			<g>
				<path fill="#FDC06D" d="M730.5,100.3c0,0,1.3-6.4,5-5.5c3.7,0.9,4.2,6.8,2.9,10.9c-1.3,4.1-4.4,10-7.9,7.2V100.3z"/>
				<path fill="#DBA75F" d="M736.7,99.5c-0.1-0.4-0.2-0.9-0.4-1.3c-0.1-0.2-0.3-0.4-0.4-0.6c-0.2-0.2-0.4-0.3-0.6-0.4
					c-0.1-0.1-0.2-0.1-0.4-0.1l-0.1,0l-0.1,0c-0.1,0-0.1,0-0.2,0c-0.3,0-0.5,0.1-0.8,0.3c-0.4,0.3-0.7,0.6-1,1
					c-0.3,0.4-0.5,0.8-0.7,1.2c-0.2,0.4-0.4,0.8-0.5,1.2c-0.2,0.4-0.3,0.8-0.4,1.3l-0.1,0.5l0.5,0.1c0.1,0,0.2,0.1,0.3,0.1
					c0.1,0.1,0.2,0.1,0.3,0.2c0.2,0.1,0.4,0.3,0.5,0.5c0.1,0.1,0.1,0.2,0.2,0.3c0.1,0.1,0.1,0.2,0.1,0.4c0,0.1,0.1,0.2,0.1,0.4
					l0,0.2l0,0.2c0,0.2,0,0.3,0,0.4c0,0.1,0,0.3-0.1,0.4c-0.1,0.3-0.1,0.5-0.3,0.8c-0.1,0.3-0.2,0.5-0.4,0.7
					c-0.1,0.1-0.2,0.2-0.2,0.3c-0.1,0.1-0.2,0.2-0.2,0.3l-0.1,0.1l0,0.1c0,0.2,0,0.4,0,0.6c0,0.2,0,0.4,0.1,0.6
					c0.1,0.2,0.2,0.4,0.4,0.6c0.2,0.2,0.4,0.3,0.6,0.3c0.2,0.1,0.4,0.1,0.7,0.1c0.1,0,0.2,0,0.3,0c0.1,0,0.2-0.1,0.3-0.1
					c0.2-0.1,0.4-0.2,0.5-0.3c0.2-0.1,0.3-0.3,0.4-0.4c0.5-0.6,0.8-1.3,1-1.9c0.2-0.7,0.3-1.4,0.4-2.1c-0.2,0.7-0.4,1.3-0.7,1.9
					c-0.2,0.3-0.3,0.6-0.5,0.9c-0.2,0.3-0.4,0.5-0.6,0.8c-0.1,0.1-0.2,0.2-0.4,0.3c-0.1,0.1-0.3,0.1-0.4,0.2c-0.1,0-0.1,0-0.2,0
					c-0.1,0-0.2,0-0.2,0c-0.1,0-0.3,0-0.4-0.1c-0.1,0-0.2-0.1-0.3-0.2c-0.1-0.1-0.1-0.2-0.1-0.3c0-0.1-0.1-0.2-0.1-0.4
					c0-0.1,0-0.2,0-0.3c0.1-0.1,0.2-0.2,0.2-0.3c0.1-0.1,0.2-0.3,0.3-0.4c0.2-0.3,0.4-0.6,0.5-0.9c0.1-0.3,0.2-0.6,0.3-1
					c0-0.2,0.1-0.3,0.1-0.5c0-0.2,0-0.4,0-0.5l0-0.3l0-0.3c0-0.2,0-0.4-0.1-0.5c0-0.2-0.1-0.4-0.2-0.5c-0.1-0.2-0.2-0.3-0.3-0.5
					c-0.2-0.3-0.5-0.6-0.8-0.8c-0.2-0.1-0.3-0.2-0.5-0.3c0,0,0,0,0,0c0.1-0.3,0.1-0.5,0.2-0.8c0.1-0.4,0.3-0.8,0.4-1.2
					c0.2-0.4,0.3-0.8,0.5-1.1c0.2-0.3,0.4-0.7,0.7-0.9c0.1-0.1,0.3-0.2,0.4-0.2c0,0,0.1,0,0.1,0c0,0,0.1,0,0.1,0l0.1,0
					c0.1,0,0.2,0,0.3,0c0.2,0,0.3,0.1,0.5,0.2c0.1,0.1,0.3,0.3,0.4,0.4c0.2,0.3,0.4,0.7,0.5,1.1c0.1,0.4,0.2,0.8,0.3,1.3
					C736.8,100.4,736.8,100,736.7,99.5z"/>
				<path fill="#FDC06D" d="M679.9,100.3c0,0-1.3-6.4-5-5.5c-3.7,0.9-4.2,6.8-2.9,10.9c1.3,4.1,4.4,10,7.9,7.2V100.3z"/>
				<path fill="#DBA75F" d="M673.7,99.5c0.1-0.4,0.2-0.9,0.4-1.3c0.1-0.2,0.3-0.4,0.4-0.6c0.2-0.2,0.4-0.3,0.6-0.4
					c0.1-0.1,0.2-0.1,0.4-0.1l0.1,0l0.1,0c0.1,0,0.1,0,0.2,0c0.3,0,0.5,0.1,0.8,0.3c0.4,0.3,0.7,0.6,1,1c0.3,0.4,0.5,0.8,0.7,1.2
					c0.2,0.4,0.4,0.8,0.5,1.2c0.2,0.4,0.3,0.8,0.4,1.3l0.1,0.5l-0.5,0.1c-0.1,0-0.2,0.1-0.3,0.1c-0.1,0.1-0.2,0.1-0.3,0.2
					c-0.2,0.1-0.4,0.3-0.5,0.5c-0.1,0.1-0.1,0.2-0.2,0.3c-0.1,0.1-0.1,0.2-0.1,0.4c0,0.1-0.1,0.2-0.1,0.4l0,0.2l0,0.2
					c0,0.2,0,0.3,0,0.4c0,0.1,0,0.3,0.1,0.4c0.1,0.3,0.1,0.5,0.3,0.8c0.1,0.3,0.2,0.5,0.4,0.7c0.1,0.1,0.2,0.2,0.2,0.3
					c0.1,0.1,0.2,0.2,0.2,0.3l0.1,0.1l0,0.1c0,0.2,0,0.4,0,0.6c0,0.2,0,0.4-0.1,0.6c-0.1,0.2-0.2,0.4-0.4,0.6
					c-0.2,0.2-0.4,0.3-0.6,0.3c-0.2,0.1-0.4,0.1-0.7,0.1c-0.1,0-0.2,0-0.3,0c-0.1,0-0.2-0.1-0.3-0.1c-0.2-0.1-0.4-0.2-0.5-0.3
					c-0.2-0.1-0.3-0.3-0.4-0.4c-0.5-0.6-0.8-1.3-1-1.9c-0.2-0.7-0.3-1.4-0.4-2.1c0.2,0.7,0.4,1.3,0.7,1.9c0.2,0.3,0.3,0.6,0.5,0.9
					c0.2,0.3,0.4,0.5,0.6,0.8c0.1,0.1,0.2,0.2,0.4,0.3c0.1,0.1,0.3,0.1,0.4,0.2c0.1,0,0.1,0,0.2,0c0.1,0,0.2,0,0.2,0
					c0.1,0,0.3,0,0.4-0.1c0.1,0,0.2-0.1,0.3-0.2c0.1-0.1,0.1-0.2,0.1-0.3c0-0.1,0.1-0.2,0.1-0.4c0-0.1,0-0.2,0-0.3
					c-0.1-0.1-0.2-0.2-0.2-0.3c-0.1-0.1-0.2-0.3-0.3-0.4c-0.2-0.3-0.4-0.6-0.5-0.9c-0.1-0.3-0.2-0.6-0.3-1c0-0.2-0.1-0.3-0.1-0.5
					c0-0.2,0-0.4,0-0.5l0-0.3l0-0.3c0-0.2,0-0.4,0.1-0.5c0-0.2,0.1-0.4,0.2-0.5c0.1-0.2,0.2-0.3,0.3-0.5c0.2-0.3,0.5-0.6,0.8-0.8
					c0.2-0.1,0.3-0.2,0.5-0.3c0,0,0,0,0,0c-0.1-0.3-0.1-0.5-0.2-0.8c-0.1-0.4-0.3-0.8-0.4-1.2c-0.2-0.4-0.3-0.8-0.5-1.1
					c-0.2-0.3-0.4-0.7-0.7-0.9c-0.1-0.1-0.3-0.2-0.4-0.2c0,0-0.1,0-0.1,0c0,0-0.1,0-0.1,0l-0.1,0c-0.1,0-0.2,0-0.3,0
					c-0.2,0-0.3,0.1-0.5,0.2c-0.1,0.1-0.3,0.3-0.4,0.4c-0.2,0.3-0.4,0.7-0.5,1.1c-0.1,0.4-0.2,0.8-0.3,1.3
					C673.6,100.4,673.6,100,673.7,99.5z"/>
				<path fill="#FDC06D" d="M727.1,120h-21.9h-21.9l-2.6,25.5c0,0,6,13.4,24.6,13.4s24.6-13.4,24.6-13.4L727.1,120z"/>
				<path fill="#FFD38D" d="M733.4,111.9c-0.6-8.1-1.9-20.3-4-30c-3.5-15.8-24.2-15.4-24.2-15.4s-20.7-0.4-24.2,15.4
					c-2.1,9.6-3.4,21.9-4,30c-0.4,5.6,1.4,11.1,5.1,15.3c5.5,6.3,15,14.7,18.1,14.7c4.9,0,5.1,0,5.1,0s0.2,0,5.1,0
					c3.1,0,12.6-8.4,18.1-14.7C732,123,733.8,117.4,733.4,111.9z"/>
				<line fill="none" stroke="#26202B" stroke-width="2" stroke-miterlimit="10" x1="698.6" y1="92.7" x2="712" y2="92.7"/>
				<path fill="none" stroke="#26202B" stroke-width="2" stroke-miterlimit="10" d="M700.4,96.7c2.7-2.7,7.1-2.7,9.8,0"/>
				<g>
					<line fill="#24202B" x1="727.8" y1="94.7" x2="732" y2="95.7"/>
					
						<rect x="727.8" y="94.7" transform="matrix(0.9723 0.2336 -0.2336 0.9723 42.4429 -167.9077)" fill="#26202B" width="4.3" height="1.1"/>
				</g>
				<g>
					<line fill="#24202B" x1="682.7" y1="94.7" x2="678.5" y2="95.7"/>
					
						<rect x="680.1" y="93" transform="matrix(0.2334 0.9724 -0.9724 0.2334 614.2849 -588.8413)" fill="#26202B" width="1.1" height="4.3"/>
				</g>
				<path fill="#DBA75F" d="M705.3,117.1c-10.5,0-12.4,2.9-12.4,2.9c3.3-1.3,12.4-1.4,12.4-1.4s9,0.1,12.4,1.4
					C717.6,120,715.8,117.1,705.3,117.1z"/>
				<g>
					<path fill="#594A42" d="M709.2,91.3c0,0,2,2.2,2.8,2.2s5.7-4.4,8.2-4.6c2.4-0.2,5.4,0.7,5.4,0.7s-4-3-7.1-2.6
						c-3.1,0.3-8.2,4.4-8.2,4.4H709.2z"/>
					<path fill="#594A42" d="M701.4,91.3c0,0-2,2.2-2.8,2.2s-5.7-4.4-8.2-4.6c-2.4-0.2-5.4,0.7-5.4,0.7s4-3,7.1-2.6
						c3.1,0.3,8.2,4.4,8.2,4.4H701.4z"/>
				</g>
				<path fill="#FDC06D" d="M705.2,119.8c-2.5,0-3.2,1.5-3.2,1.5h3.2h3.2C708.4,121.3,707.8,119.8,705.2,119.8z"/>
				<g>
					<path fill="#26202B" d="M702.6,95.5c0-2.4-2.3-4.3-8.5-4.3c-8.5,0-13.7,0.9-13.7,5.6c0,3.1,1.3,9.3,9.2,10.2
						C699.9,108,702.6,97.2,702.6,95.5z"/>
					<path fill="#26202B" d="M707.9,95.5c0-2.4,2.3-4.3,8.5-4.3c8.5,0,13.7,0.9,13.7,5.6c0,3.1-1.3,9.3-9.2,10.2
						C710.7,108,707.9,97.2,707.9,95.5z"/>
					<linearGradient id="SVGID_9_" gradientUnits="userSpaceOnUse" x1="718.9772" y1="90.6698" x2="718.9772" y2="99.6463">
						<stop  offset="0" style="stop-color:#FFFFFF"/>
						<stop  offset="1" style="stop-color:#000000;stop-opacity:0"/>
					</linearGradient>
					<path fill="url(#SVGID_9_)" d="M721.4,97.8c0.7,0.1,1.5,0.2,2.2,0.4c1.7,0.4,3.2,1,4.5,1.6c0.4-1.2,0.4-2.3,0.4-3
						c0-2.5-2-4-12.1-4c-4.3,0-6.9,1-6.9,2.7c0,0,0.3,2,1.4,4.2C713.7,98.1,717.1,97.2,721.4,97.8z"/>
					<linearGradient id="SVGID_10_" gradientUnits="userSpaceOnUse" x1="691.5594" y1="90.3189" x2="691.5594" y2="100.1468">
						<stop  offset="0" style="stop-color:#FFFFFF"/>
						<stop  offset="1" style="stop-color:#000000;stop-opacity:0"/>
					</linearGradient>
					<path fill="url(#SVGID_10_)" d="M689.2,97.8c-0.7,0.1-1.5,0.2-2.2,0.4c-1.7,0.4-3.2,1-4.5,1.6c-0.4-1.2-0.4-2.3-0.4-3
						c0-2.5,2-4,12.1-4c4.3,0,6.9,1,6.9,2.7c0,0-0.3,2-1.4,4.2C696.9,98.1,693.4,97.2,689.2,97.8z"/>
				</g>
				<path fill="#594A42" d="M732.7,103.6L732,80.1c-3.5-16.6-26-17.5-26.7-17.5v0c0,0,0,0,0,0c0,0,0,0,0,0v0
					c-0.7,0-23.2,0.9-26.7,17.5l-0.7,23.5l7.3-21.5c0,0,6.2-2.5,20.2-2.6c14,0,20.2,2.6,20.2,2.6L732.7,103.6z"/>
				<polygon fill="#726658" points="677.8,103.4 685,82.1 678.5,80.1 				"/>
				<polygon fill="#726658" points="732.7,103.4 725.5,82.1 732,80.1 				"/>
				<path fill="#FDC06D" d="M700.5,111.1h9.5c0,0-1,2.5-4.8,2.5S700.5,111.1,700.5,111.1z"/>
				<g>
					<path fill="#0A152A" d="M727,61.4c-5.2-4.5-21.6-5.3-21.6-5.3s-16.4,0.8-21.6,5.3c-5.2,4.5-6.9,26.7-6.9,26.7l28.5-3.9
						l28.5,3.9C733.9,88.1,732.2,65.9,727,61.4z"/>
					<path fill="#1E2940" d="M721.1,61.4c-3.8-4.5-15.8-5.3-15.8-5.3s-12,0.8-15.8,5.3c-3.8,4.5-5,26.7-5,26.7l20.8-3.9l20.8,3.9
						C726.1,88.1,724.9,65.9,721.1,61.4z"/>
					<path fill="#1E2940" d="M705.5,92.2c17.2,0,28.4-4.1,28.4-4.1s-2.4-4.8-5.8-6.8c-3.4-2-16.5-3.8-22.6-3.8v0c0,0-0.1,0-0.1,0
						c0,0-0.1,0-0.1,0v0c-6.1,0-19.2,1.8-22.6,3.8c-3.5,2-5.8,6.8-5.8,6.8s11.2,4.1,28.4,4.1v0c0,0,0.1,0,0.1,0
						C705.4,92.2,705.4,92.2,705.5,92.2L705.5,92.2z"/>
					<path fill="#0A152A" d="M682.7,82.7c3.4-1.7,16.5-3.3,22.6-3.3v0c0,0,0.1,0,0.1,0c0,0,0.1,0,0.1,0v0c6.1,0,19.2,1.6,22.6,3.3
						c2.8,1.4,4.8,4.4,5.5,5.5c0.2-0.1,0.3-0.1,0.3-0.1s-2.4-4.8-5.8-6.8c-3.4-2-16.5-3.8-22.6-3.8v0c0,0-0.1,0-0.1,0
						c0,0-0.1,0-0.1,0v0c-6.1,0-19.2,1.8-22.6,3.8c-3.5,2-5.8,6.8-5.8,6.8s0.1,0,0.3,0.1C677.8,87.1,679.9,84.1,682.7,82.7z"/>
					<g>
						<path fill="#FFFFFF" d="M689.5,68.3c0-1,0.6-1.3,1.4-1.3c0.6,0,1.6,0.1,2,0.2v0.7c-0.5,0-1.6-0.1-1.8-0.1
							c-0.5,0-0.8,0-0.8,0.6v0.3c0,0.5,0.2,0.6,0.6,0.6h0.9c1,0,1.2,0.8,1.2,1.3V71c0,1.1-0.7,1.3-1.5,1.3c-0.7,0-1.5-0.1-2-0.2
							v-0.7c0.3,0,1.2,0.1,1.8,0.1c0.3,0,0.8,0,0.8-0.5v-0.4c0-0.3-0.1-0.6-0.5-0.6h-0.9c-1.2,0-1.3-0.8-1.3-1.3V68.3z"/>
						<path fill="#FFFFFF" d="M693.8,68.1c0-0.8,0.6-1.1,1.1-1c0,0,2,0.1,2.3,0.1v0.7H695c-0.4,0-0.4,0.2-0.4,0.4v1l2.2,0.1V70
							l-2.2,0.1v1c0,0.4,0.2,0.4,0.4,0.4h2.1v0.7c-0.3,0-2.2,0.1-2.2,0.1c-0.5,0-1.1-0.1-1.1-1V68.1z"/>
						<path fill="#FFFFFF" d="M699.6,67c0.6,0,1.3,0.1,1.8,0.2v0.7c0,0-1-0.1-1.7-0.1c-0.8,0-1.1,0.3-1.1,1.9c0,1.2,0.2,1.9,1.1,1.9
							c0.8,0,1.7-0.1,1.7-0.1v0.7c-0.5,0.1-1.2,0.2-1.8,0.2c-1.3,0-1.8-1.1-1.8-2.7C697.8,68,698.1,67,699.6,67z"/>
						<path fill="#FFFFFF" d="M702.1,67h0.8v3c0,1.4,0.4,1.6,1.2,1.6c0.7,0,1.1-0.2,1.1-1.6v-3h0.8v3c0,2.3-1.1,2.3-2,2.3
							c-1,0-2,0.1-2-2.3V67z"/>
						<path fill="#FFFFFF" d="M706.8,67h2.3c0.8,0,1.4,0.4,1.4,1.6c0,1.3-0.6,1.5-0.9,1.5l1,2.1h-0.9l-1-2.1l-1.1-0.1v2.2h-0.8V67z
							 M709,69.5c0.3,0,0.6-0.1,0.6-0.8c0-0.7-0.3-0.9-0.6-0.9h-1.4v1.7H709z"/>
						<path fill="#FFFFFF" d="M711.3,67h0.8v5.3h-0.8V67z"/>
						<path fill="#FFFFFF" d="M712.7,67h3.8v0.8H715v4.5h-0.8v-4.5h-1.5V67z"/>
						<path fill="#FFFFFF" d="M717.9,67l1.2,2.6l1.3-2.6h0.9l-1.8,3.6v1.7h-0.8v-1.7L717,67H717.9z"/>
					</g>
				</g>
			</g>
			<path fill="#FFD38D" d="M645.2,219.5c0,0,2.5,3.5,3.7,8.6c0,0,14.6-3,35.6-0.9c21.1,2.1,33.7,1.8,47.4-3.9s23.4-3,30.1,4.7
				c0,0-41.7,27.1-65,45.6c-19.9,15.8-44.7,18.8-60.5,13.5s-19-7-23.9-7s-8.4-5.3-8.1-11.9c0,0-5.1-3.5-9.4-13
				C595.1,255.3,610.4,224,645.2,219.5z"/>
			<g>
				<path fill="#FDC06D" d="M665,223.2c0,0-10.5-4.9-13.6-5c-3-0.1-10.4,4.5-11.7,7.3s1.6,5,1.6,5L665,223.2z"/>
				<path fill="#FDC06D" d="M666,218.7c0,0-9.5,0.9-13.9,5.4c-1.6,1.7-6.8,11.3-6.9,14.1c-0.2,2.8,4.8,4,4.8,4s7.2-13.7,9.4-14.9
					c2.2-1.2,14.5-5.5,14.5-5.5S668.8,218.1,666,218.7z"/>
				<path fill="#FDC06D" d="M678,223.3c-1.9-2.5-5.2-3.4-8.1-2.2c-3.6,1.5-8,3.8-9.7,6.4c-3,4.7-4.5,15.1-4.1,17.9s5.4,3.1,5.4,3.1
					s4.4-14.9,5.8-16.7C668.6,230.1,678,223.3,678,223.3L678,223.3z"/>
				<path fill="#FDC06D" d="M681.2,225.1c0,0-2.4-4.2-5.6-2.9c-3.2,1.4-7.4,8.9-7.9,11c-0.5,2.1,0.1,10.5,2.4,11.2
					c2.3,0.7,4-0.2,4-0.2s1.1-8.8,1.5-10.1C676,232.9,681.2,225.1,681.2,225.1z"/>
			</g>
			<path fill="#F4C386" d="M604.5,268.2c0,0-5.1-3.5-9.4-13c0,0,0.9-1.9,2.8-4.8c4.1,5.6,8,7.6,8,7.6c1.8-5.3,7-8.5,7-8.5
				c-2.5,13.9,1.8,18.7,17.2,24.7c15.4,6,36.8,3.5,67.4-13.7c24.3-13.7,50.9-30.1,60.6-36.1c1.4,1,2.7,2.3,3.9,3.6
				c0,0-41.7,27.1-65,45.6c-19.9,15.8-44.7,18.8-60.5,13.5s-19-7-23.9-7C607.6,280.2,604.1,274.9,604.5,268.2z"/>
			<path fill="#1E2940" d="M767.6,172.1c-27.9-7.9-62.3,2.1-62.3,2.1s-34.5-10-62.3-2.1c0,0,29.8-2.7,58.4,6.9
				c2.1,13.6,4,39.2,4,39.2s1.8-25.5,4-39.2C737.8,169.4,767.6,172.1,767.6,172.1z"/>
			<path fill="#F0AD66" d="M705.4,147.6c-4.6,0-5.7-2.1-5.7-2.1c0,3.8,3.7,4.5,5.7,4.5c2,0,5.7-0.7,5.7-4.5
				C711.1,145.5,710,147.6,705.4,147.6z"/>
			<g>
				<path fill="#414042" d="M737.7,102.7l1.3,4.8c0,0-4.3,7.7-5.1,8.3c-0.8,0.6-3.8,0.5-3.8,0.5l-1-2.2L737.7,102.7z"/>
				<path fill="#58595B" d="M732.7,98.5l-3.6,15.6c0,0,3.5,0.5,4.4-0.4c0.9-1,4.3-10.3,4.2-10.9C737.6,102.1,732.7,98.5,732.7,98.5z
					"/>
				<g>
					<path fill="#414042" d="M723.3,122.1l-0.4-1.8c0,0,4.5-1,6.3-2.1c0.3-0.4,1-2,1.5-3.4l1.8,0.6c-1.3,3.8-2,4.2-2.2,4.3
						C728.2,121,723.5,122.1,723.3,122.1z"/>
				</g>
				<path fill="#414042" d="M721.7,121.7L721.7,121.7c0.2,0.7,1,1.1,1.7,0.9l1.6-0.5c0.7-0.2,1.1-1,0.9-1.7l0,0
					c-0.2-0.7-1-1.1-1.7-0.9l-1.6,0.5C721.9,120.3,721.5,121,721.7,121.7z"/>
			</g>
		</g>
		<g>
			<g>
				<path fill="#0A152A" d="M238.9,459.8c0,0,6.6-17.9-5.8-31.3c-12.4-13.4-27.9-11.1-27.9-11.1c-12.9-7.1-24-8.9-24-8.9
					c-10.5-11.1-20-13.4-20-13.4l-24.7,1.1l-24.7-1.1c0,0-9.5,2.4-20,13.4c0,0-11.1,1.8-24,8.9c0,0-15.5-2.4-27.9,11.1
					c-12.4,13.4-5.8,31.3-5.8,31.3s-16.8,21.8-7.9,45c0,0,14-30,50.1-35.8l15.4,35.8h44.8h44.8l15.4-35.8
					c36.1,5.8,50.1,35.8,50.1,35.8C255.8,481.7,238.9,459.8,238.9,459.8z"/>
				<path fill="#0A152A" d="M196.8,469.1c0,0-2.5,3.5-3.7,8.6c0,0-14.6-3-35.6-0.9s-33.7,1.8-47.4-3.9c-13.7-5.6-23.4-3-30.1,4.7
					c0,0,41.7,27.1,65,45.6c19.9,15.8,44.7,18.8,60.5,13.5c15.8-5.3,19-7,23.9-7c4.9,0,8.4-5.3,8.1-11.9c0,0,5.1-3.5,9.4-13
					C246.9,504.9,231.6,473.6,196.8,469.1z"/>
				<path fill="#E6E7E8" d="M178.6,405.9c-9.4-8.8-17.3-10.8-17.3-10.8l-24.7,1.1l-24.7-1.1c0,0-7.8,2-17.2,10.6l38.7,99.1h3.2h3.5
					L178.6,405.9z"/>
				<polygon fill="#0A152A" points="140.3,419.3 146.6,415.3 146.5,408.5 136.4,408.5 126.4,408.5 126.3,415.3 132.5,419.3 
					124.8,486.1 136.4,486.1 148.1,486.1 				"/>
				<g>
					<path fill="#FDC06D" d="M161.6,349.9c0,0,1.3-6.4,5-5.5c3.7,0.9,4.2,6.8,2.9,10.9c-1.3,4.1-4.4,10-7.9,7.2V349.9z"/>
					<path fill="#DBA75F" d="M167.9,349.1c-0.1-0.4-0.2-0.9-0.4-1.3c-0.1-0.2-0.3-0.4-0.4-0.6c-0.2-0.2-0.4-0.3-0.6-0.4
						c-0.1-0.1-0.2-0.1-0.4-0.1l-0.1,0l-0.1,0c-0.1,0-0.1,0-0.2,0c-0.3,0-0.5,0.1-0.8,0.3c-0.4,0.3-0.7,0.6-1,1
						c-0.3,0.4-0.5,0.8-0.7,1.2c-0.2,0.4-0.4,0.8-0.5,1.2c-0.2,0.4-0.3,0.8-0.4,1.3l-0.1,0.5l0.5,0.1c0.1,0,0.2,0.1,0.3,0.1
						c0.1,0.1,0.2,0.1,0.3,0.2c0.2,0.1,0.4,0.3,0.5,0.5c0.1,0.1,0.1,0.2,0.2,0.3c0.1,0.1,0.1,0.2,0.1,0.4c0,0.1,0.1,0.2,0.1,0.4
						l0,0.2l0,0.2c0,0.2,0,0.3,0,0.4c0,0.1,0,0.3-0.1,0.4c-0.1,0.3-0.1,0.5-0.3,0.8c-0.1,0.3-0.2,0.5-0.4,0.7
						c-0.1,0.1-0.2,0.2-0.2,0.3c-0.1,0.1-0.2,0.2-0.2,0.3l-0.1,0.1l0,0.1c0,0.2,0,0.4,0,0.6c0,0.2,0,0.4,0.1,0.6
						c0.1,0.2,0.2,0.4,0.4,0.6c0.2,0.2,0.4,0.3,0.6,0.3c0.2,0.1,0.4,0.1,0.7,0.1c0.1,0,0.2,0,0.3,0c0.1,0,0.2-0.1,0.3-0.1
						c0.2-0.1,0.4-0.2,0.5-0.3c0.2-0.1,0.3-0.3,0.4-0.4c0.5-0.6,0.8-1.3,1-1.9c0.2-0.7,0.3-1.4,0.4-2.1c-0.2,0.7-0.4,1.3-0.7,1.9
						c-0.2,0.3-0.3,0.6-0.5,0.9c-0.2,0.3-0.4,0.5-0.6,0.8c-0.1,0.1-0.2,0.2-0.4,0.3c-0.1,0.1-0.3,0.1-0.4,0.2c-0.1,0-0.1,0-0.2,0
						c-0.1,0-0.2,0-0.2,0c-0.1,0-0.3,0-0.4-0.1c-0.1,0-0.2-0.1-0.3-0.2c-0.1-0.1-0.1-0.2-0.1-0.3c0-0.1-0.1-0.2-0.1-0.4
						c0-0.1,0-0.2,0-0.3c0.1-0.1,0.2-0.2,0.2-0.3c0.1-0.1,0.2-0.3,0.3-0.4c0.2-0.3,0.4-0.6,0.5-0.9c0.1-0.3,0.2-0.6,0.3-1
						c0-0.2,0.1-0.3,0.1-0.5c0-0.2,0-0.4,0-0.5l0-0.3l0-0.3c0-0.2,0-0.4-0.1-0.5c0-0.2-0.1-0.4-0.2-0.5c-0.1-0.2-0.2-0.3-0.3-0.5
						c-0.2-0.3-0.5-0.6-0.8-0.8c-0.2-0.1-0.3-0.2-0.5-0.3c0,0,0,0,0,0c0.1-0.3,0.1-0.5,0.2-0.8c0.1-0.4,0.3-0.8,0.4-1.2
						c0.2-0.4,0.3-0.8,0.5-1.1c0.2-0.3,0.4-0.7,0.7-0.9c0.1-0.1,0.3-0.2,0.4-0.2c0,0,0.1,0,0.1,0c0,0,0.1,0,0.1,0l0.1,0
						c0.1,0,0.2,0,0.3,0c0.2,0,0.3,0.1,0.5,0.2c0.1,0.1,0.3,0.3,0.4,0.4c0.2,0.3,0.4,0.7,0.5,1.1c0.1,0.4,0.2,0.8,0.3,1.3
						C167.9,350,167.9,349.5,167.9,349.1z"/>
					<path fill="#FDC06D" d="M111,349.9c0,0-1.3-6.4-5-5.5c-3.7,0.9-4.2,6.8-2.9,10.9s4.4,10,7.9,7.2V349.9z"/>
					<path fill="#DBA75F" d="M104.9,349.1c0.1-0.4,0.2-0.9,0.4-1.3c0.1-0.2,0.3-0.4,0.4-0.6c0.2-0.2,0.4-0.3,0.6-0.4
						c0.1-0.1,0.2-0.1,0.4-0.1l0.1,0l0.1,0c0.1,0,0.1,0,0.2,0c0.3,0,0.5,0.1,0.8,0.3c0.4,0.3,0.7,0.6,1,1c0.3,0.4,0.5,0.8,0.7,1.2
						c0.2,0.4,0.4,0.8,0.5,1.2c0.2,0.4,0.3,0.8,0.4,1.3l0.1,0.5l-0.5,0.1c-0.1,0-0.2,0.1-0.3,0.1c-0.1,0.1-0.2,0.1-0.3,0.2
						c-0.2,0.1-0.4,0.3-0.5,0.5c-0.1,0.1-0.1,0.2-0.2,0.3c-0.1,0.1-0.1,0.2-0.1,0.4c0,0.1-0.1,0.2-0.1,0.4l0,0.2l0,0.2
						c0,0.2,0,0.3,0,0.4c0,0.1,0,0.3,0.1,0.4c0.1,0.3,0.1,0.5,0.3,0.8c0.1,0.3,0.2,0.5,0.4,0.7c0.1,0.1,0.2,0.2,0.2,0.3
						c0.1,0.1,0.2,0.2,0.2,0.3l0.1,0.1l0,0.1c0,0.2,0,0.4,0,0.6c0,0.2,0,0.4-0.1,0.6c-0.1,0.2-0.2,0.4-0.4,0.6
						c-0.2,0.2-0.4,0.3-0.6,0.3c-0.2,0.1-0.4,0.1-0.7,0.1c-0.1,0-0.2,0-0.3,0c-0.1,0-0.2-0.1-0.3-0.1c-0.2-0.1-0.4-0.2-0.5-0.3
						c-0.2-0.1-0.3-0.3-0.4-0.4c-0.5-0.6-0.8-1.3-1-1.9c-0.2-0.7-0.3-1.4-0.4-2.1c0.2,0.7,0.4,1.3,0.7,1.9c0.2,0.3,0.3,0.6,0.5,0.9
						c0.2,0.3,0.4,0.5,0.6,0.8c0.1,0.1,0.2,0.2,0.4,0.3c0.1,0.1,0.3,0.1,0.4,0.2c0.1,0,0.1,0,0.2,0c0.1,0,0.2,0,0.2,0
						c0.1,0,0.3,0,0.4-0.1c0.1,0,0.2-0.1,0.3-0.2c0.1-0.1,0.1-0.2,0.1-0.3c0-0.1,0.1-0.2,0.1-0.4c0-0.1,0-0.2,0-0.3
						c-0.1-0.1-0.2-0.2-0.2-0.3c-0.1-0.1-0.2-0.3-0.3-0.4c-0.2-0.3-0.4-0.6-0.5-0.9c-0.1-0.3-0.2-0.6-0.3-1c0-0.2-0.1-0.3-0.1-0.5
						c0-0.2,0-0.4,0-0.5l0-0.3l0-0.3c0-0.2,0-0.4,0.1-0.5c0-0.2,0.1-0.4,0.2-0.5c0.1-0.2,0.2-0.3,0.3-0.5c0.2-0.3,0.5-0.6,0.8-0.8
						c0.2-0.1,0.3-0.2,0.5-0.3c0,0,0,0,0,0c-0.1-0.3-0.1-0.5-0.2-0.8c-0.1-0.4-0.3-0.8-0.4-1.2c-0.2-0.4-0.3-0.8-0.5-1.1
						c-0.2-0.3-0.4-0.7-0.7-0.9c-0.1-0.1-0.3-0.2-0.4-0.2c0,0-0.1,0-0.1,0c0,0-0.1,0-0.1,0l-0.1,0c-0.1,0-0.2,0-0.3,0
						c-0.2,0-0.3,0.1-0.5,0.2c-0.1,0.1-0.3,0.3-0.4,0.4c-0.2,0.3-0.4,0.7-0.5,1.1c-0.1,0.4-0.2,0.8-0.3,1.3
						C104.8,350,104.8,349.5,104.9,349.1z"/>
					<path fill="#FDC06D" d="M158.3,369.6h-21.9h-21.9l-2.6,25.5c0,0,6,13.4,24.6,13.4s24.6-13.4,24.6-13.4L158.3,369.6z"/>
					<path fill="#FFD38D" d="M164.6,361.4c-0.6-8.1-1.9-20.3-4-30c-3.5-15.8-24.2-15.4-24.2-15.4s-20.7-0.4-24.2,15.4
						c-2.1,9.6-3.4,21.9-4,30c-0.4,5.6,1.4,11.1,5.1,15.3c5.5,6.3,15,14.7,18.1,14.7c4.9,0,5.1,0,5.1,0s0.2,0,5.1,0
						c3.1,0,12.6-8.4,18.1-14.7C163.2,372.6,165,367,164.6,361.4z"/>
					<line fill="none" stroke="#26202B" stroke-width="2" stroke-miterlimit="10" x1="129.7" y1="342.3" x2="143.2" y2="342.3"/>
					<path fill="none" stroke="#26202B" stroke-width="2" stroke-miterlimit="10" d="M131.6,346.3c2.7-2.7,7.1-2.7,9.8,0"/>
					<g>
						<line fill="#24202B" x1="159" y1="344.3" x2="163.2" y2="345.3"/>
						
							<rect x="158.9" y="344.3" transform="matrix(0.9723 0.2336 -0.2336 0.9723 85.0152 -28.0973)" fill="#26202B" width="4.3" height="1.1"/>
					</g>
					<g>
						<line fill="#24202B" x1="113.9" y1="344.3" x2="109.7" y2="345.3"/>
						
							<rect x="111.3" y="342.6" transform="matrix(0.2334 0.9724 -0.9724 0.2334 420.9494 155.5905)" fill="#26202B" width="1.1" height="4.3"/>
					</g>
					<path fill="#FDC06D" d="M131.7,360.7h9.5c0,0-1,2.5-4.8,2.5C132.7,363.2,131.7,360.7,131.7,360.7z"/>
					<path fill="#DBA75F" d="M136.4,366.7c-10.5,0-12.4,2.9-12.4,2.9c3.3-1.3,12.4-1.4,12.4-1.4s9,0.1,12.4,1.4
						C148.8,369.6,146.9,366.7,136.4,366.7z"/>
					<g>
						<path fill="#594A42" d="M140.3,340.9c0,0,2,2.2,2.8,2.2c0.8,0,5.7-4.4,8.2-4.6c2.4-0.2,5.4,0.7,5.4,0.7s-4-3-7.1-2.6
							c-3.1,0.3-8.2,4.4-8.2,4.4H140.3z"/>
						<path fill="#594A42" d="M132.6,340.9c0,0-2,2.2-2.8,2.2c-0.8,0-5.7-4.4-8.2-4.6c-2.4-0.2-5.4,0.7-5.4,0.7s4-3,7.1-2.6
							c3.1,0.3,8.2,4.4,8.2,4.4H132.6z"/>
					</g>
					<path fill="#FDC06D" d="M136.4,369.4c-2.5,0-3.2,1.5-3.2,1.5h3.2h3.2C139.6,370.9,139,369.4,136.4,369.4z"/>
					<g>
						<path fill="#26202B" d="M133.8,345.1c0-2.4-2.3-4.3-8.5-4.3c-8.5,0-13.7,0.9-13.7,5.6c0,3.1,1.3,9.3,9.2,10.2
							C131.1,357.6,133.8,346.8,133.8,345.1z"/>
						<path fill="#26202B" d="M139.1,345.1c0-2.4,2.3-4.3,8.5-4.3c8.5,0,13.7,0.9,13.7,5.6c0,3.1-1.3,9.3-9.2,10.2
							C141.8,357.6,139.1,346.8,139.1,345.1z"/>
						<linearGradient id="SVGID_11_" gradientUnits="userSpaceOnUse" x1="150.1552" y1="340.2631" x2="150.1552" y2="349.2396">
							<stop  offset="0" style="stop-color:#FFFFFF"/>
							<stop  offset="1" style="stop-color:#000000;stop-opacity:0"/>
						</linearGradient>
						<path fill="url(#SVGID_11_)" d="M152.5,347.4c0.7,0.1,1.5,0.2,2.2,0.4c1.7,0.4,3.2,1,4.5,1.6c0.4-1.2,0.4-2.3,0.4-3
							c0-2.5-2-4-12.1-4c-4.3,0-6.9,1-6.9,2.7c0,0,0.3,2,1.4,4.2C144.9,347.7,148.3,346.8,152.5,347.4z"/>
						<linearGradient id="SVGID_12_" gradientUnits="userSpaceOnUse" x1="122.7373" y1="339.9122" x2="122.7373" y2="349.7401">
							<stop  offset="0" style="stop-color:#FFFFFF"/>
							<stop  offset="1" style="stop-color:#000000;stop-opacity:0"/>
						</linearGradient>
						<path fill="url(#SVGID_12_)" d="M120.4,347.4c-0.7,0.1-1.5,0.2-2.2,0.4c-1.7,0.4-3.2,1-4.5,1.6c-0.4-1.2-0.4-2.3-0.4-3
							c0-2.5,2-4,12.1-4c4.3,0,6.9,1,6.9,2.7c0,0-0.3,2-1.4,4.2C128,347.7,124.6,346.8,120.4,347.4z"/>
					</g>
				</g>
				<g>
					<path fill="#1E2940" d="M102.5,398.5l34.1,102.8H115l-35-49.9l10.6-20.6l-14.3-3.4l7.1-18.9C83.4,408.5,93.6,405.5,102.5,398.5
						z"/>
					<path fill="#1E2940" d="M170.6,398.5l-34.1,102.8h21.6l35-49.9l-10.6-20.6l14.3-3.4l-7.1-18.9
						C189.8,408.5,179.5,405.5,170.6,398.5z"/>
				</g>
				<g>
					<path fill="#020B22" d="M237.5,517.8c0,0,5.1-3.5,9.4-13c0,0-0.9-1.9-2.8-4.8c-4.1,5.6-8,7.6-8,7.6c-1.8-5.3-7-8.5-7-8.5
						c2.5,13.9-1.8,18.7-17.2,24.7s-36.8,3.5-67.4-13.7c-24.3-13.7-50.9-30.1-60.6-36.1c-1.4,1-2.7,2.3-3.9,3.6
						c0,0,41.7,27.1,65,45.6c19.9,15.8,44.7,18.8,60.5,13.5c15.8-5.3,19-7,23.9-7C234.4,529.8,237.9,524.5,237.5,517.8z"/>
					<path fill="#020B22" d="M244.1,500.1L244.1,500.1c1.9,2.9,2.7,4.8,2.7,4.8c3.3-8.6,3.1-17.1,1.5-24.3
						C247.7,492.5,244.1,500.1,244.1,500.1z"/>
				</g>
				<path fill="#0A152A" d="M76.3,469.1c0,0,2.5,3.5,3.7,8.6c0,0,14.6-3,35.6-0.9s33.7,1.8,47.4-3.9c13.7-5.6,23.4-3,30.1,4.7
					c0,0-41.7,27.1-65,45.6c-19.9,15.8-44.7,18.8-60.5,13.5c-15.8-5.3-19-7-23.9-7s-8.4-5.3-8.1-11.9c0,0-5.1-3.5-9.4-13
					C26.3,504.9,41.6,473.6,76.3,469.1z"/>
				<g>
					<path fill="#020B22" d="M35.5,517.8c0,0-5.1-3.5-9.4-13c0,0,0.9-1.9,2.8-4.8c4.1,5.6,8,7.6,8,7.6c1.8-5.3,7-8.5,7-8.5
						c-2.5,13.9,1.8,18.7,17.2,24.7s36.8,3.5,67.4-13.7c24.3-13.7,50.9-30.1,60.6-36.1c1.4,1,2.7,2.3,3.9,3.6c0,0-41.7,27.1-65,45.6
						c-19.9,15.8-44.7,18.8-60.5,13.5c-15.8-5.3-19-7-23.9-7S35.2,524.5,35.5,517.8z"/>
					<path fill="#020B22" d="M29,500.1L29,500.1c-1.9,2.9-2.7,4.8-2.7,4.8c-3.3-8.6-3.1-17.1-1.5-24.3C25.3,492.5,29,500.1,29,500.1
						z"/>
				</g>
				<path fill="#FDC06D" d="M165.6,472l9,18c10.8-7.3,18.6-12.4,18.6-12.4C186.9,470.4,177.9,467.7,165.6,472z"/>
				<g>
					<path fill="#FDC06D" d="M96.1,472.8c0,0-10.5-4.9-13.6-5c-3-0.1-10.4,4.5-11.7,7.3s1.6,5,1.6,5L96.1,472.8z"/>
					<path fill="#FDC06D" d="M97.2,468.3c0,0-9.5,0.9-13.9,5.4c-1.6,1.7-6.8,11.3-6.9,14.1s4.8,4,4.8,4s7.2-13.7,9.4-14.9
						c2.2-1.2,14.5-5.5,14.5-5.5S100,467.7,97.2,468.3z"/>
					<path fill="#FDC06D" d="M109.2,472.8c-1.9-2.5-5.2-3.4-8.1-2.2c-3.6,1.5-8,3.8-9.7,6.4c-3,4.7-4.5,15.1-4.1,17.9
						c0.4,2.8,5.4,3.1,5.4,3.1s4.4-14.9,5.8-16.7S109.2,472.8,109.2,472.8L109.2,472.8z"/>
					<path fill="#FDC06D" d="M112.3,474.7c0,0-2.4-4.2-5.6-2.9s-7.4,8.9-7.9,11s0.1,10.5,2.4,11.2c2.3,0.7,4-0.2,4-0.2
						s1.1-8.8,1.5-10.1S112.3,474.7,112.3,474.7z"/>
				</g>
				<g>
					<g>
						<path fill="#FFFFFF" d="M136.4,408.5c0,0,3.2,0.2,3.4,0.8c0.2,0.6,7.1,14.6,7.1,14.6s12.5-4.9,17.1-8.9
							c4.6-4,7.7-15.5,7.7-15.5l-10.3-8c0,0-6.9,11.5-24.1,15.8C136.8,407.4,136.7,408.1,136.4,408.5z"/>
					</g>
					<g>
						<path fill="#FFFFFF" d="M136.5,408.5c0,0-3.2,0.2-3.4,0.8c-0.2,0.6-7.1,14.6-7.1,14.6s-12.5-4.9-17.1-8.9s-7.7-15.5-7.7-15.5
							l10.3-8c0,0,6.9,11.5,24.1,15.8C136.1,407.4,136.2,408.1,136.5,408.5z"/>
					</g>
				</g>
				<g>
					<path fill="#594A42" d="M163.3,351.7c0-3.3-1.4-10.9-3-11.4c-1.4-0.5-3,0.2-4.4-0.4c-2.9-1.3-1.3-5.2-3.3-7
						c-2.2-2.1-5.4,1.2-7.9,0.3c-1.3-0.5-2.1-2-3.3-2.5c-2.3-1.1-4.9,1.6-7.4,1.1c-2.2-0.4-3.4-3-4.1-5.3c-0.6-2.1-1.2-7.5-4.6-6.4
						c-0.9,0.3-1.5,0.9-2.1,1.6c-0.9,1-1.7,2.1-2.3,3.3c-0.9-0.4-1.9-0.6-2.9-0.5c-0.2,0-0.5,0.1-0.6,0.2c-0.2,0.1-0.4,0.4-0.5,0.6
						c-0.7,1.5-0.3,3.4-0.4,5c-0.3,2.6-1.9,3.8-3.9,5.3c-1.2,0.9-1.6,2.7-1.8,4.3c-0.3,2-2.1,9-1.7,11c-0.9-0.7-1-2.3-1.3-3.3
						c-0.4-1-1.2-2.2-2.3-2c-0.7,0.1-1.4,0.6-2,0.2c-0.2-1.1-0.5-2.2-0.7-3.3c-0.1-0.4-0.2-0.8-0.4-1.1c-0.8-0.9-2.3-0.4-3.4-0.8
						c-1.3-0.5-1.7-2.1-1.3-3.4c0.4-1.3,1.3-2.3,2.1-3.4c0.8-1.1,1.5-2.4,1.2-3.7c-0.1-0.5-0.3-0.9-0.4-1.4c-0.5-1.6,0-3.5,1.2-4.7
						c1.2-1.2,3.3-2.2,3-3.9c-0.1-0.6-0.5-1.2-0.8-1.7c-0.4-0.9-0.5-2.1,0-3c0.5-0.9,1.5-1.5,2.6-1.4c0.6,0.1,1.4,0.4,1.9,0.1
						c0.3-0.2,0.5-0.6,0.7-1c1.1-2.1,4.4-2.5,6-0.8c0.4,0.4,1,0.8,1.3,0.4c0.1-1,0.5-2.2,1-3.1s1.3-1.7,2.3-1.7
						c0.6,0,1.1,0.2,1.7,0.2c1.3-0.1,2-1.4,2.7-2.5c1-1.5,2.2-2.8,3.7-3.8c0.9-0.6,2.2-1.1,3.1-0.4c0.6,0.4,0.8,1.3,1.3,1.8
						c0.7,0.8,1.9,0.9,3,0.7c1-0.2,2-0.8,3-1.2c2.3-0.9,4.9-0.8,7.1,0.2c1.5,2.1,3.2,4.2,5.8,4.3c1.1,0.1,2.2-0.3,3.3-0.6
						c1.7-0.5,3.6-0.6,5.3-0.1s3.2,2.1,3.3,3.8c0.1,1.4-0.5,2.9,0.4,4c0.4,0.4,0.9,0.7,1.4,1c1.5,0.8,2.9,1.9,3.9,3.3
						c0.7,0.9,1.3,2,1,3.2c-0.4,1.8-2.7,3.3-1.9,4.9c-0.3,1.6,0.7,3,1.9,4c1.2,1.1,2.5,2.6,1.9,4.1c-0.5,1.3-2,1.9-2.7,3.1
						c-0.7,1.2-0.3,2.6,0,4c0.3,1.3,0.4,2.9-0.6,3.8c-0.9,0.9-2.7,1-3.2,2.2c-0.3,0.7-0.1,1.6-0.2,2.4
						C165.1,350.9,164,352.3,163.3,351.7z"/>
					<path fill="#726658" d="M134.9,318.1c-1.8-0.6-2.6-2.7-4-4c-1.4-1.3-3.6-1.8-5.4-1.1s-3.2,2.4-3.4,4.3c1.7-1.4,3.8-2.8,5.9-2.3
						c3.3,0.9,4,6,7.2,7.1c2.3,0.8,5.1-0.7,7,0.8c1.2,0.9,1.5,2.8,2.8,3.6c1,0.6,2.3,0.5,3.5,0.1c1.1-0.4,2.2-0.9,3.4-1
						c1.2-0.1,2.6,0.5,2.9,1.6c0.2,0.7,0,1.4,0.2,2c0.5,1.3,2.1,1.4,3.4,1.9c2,0.7,3.5,2.5,3.8,4.5c0.3-1.2,0.5-2.5,0.4-3.8
						c-0.1-1.3-0.8-2.5-1.9-3.1c-0.8-0.4-1.7-0.4-2.5-0.9c-1.6-0.9-1.9-3.1-3-4.5c-1.3-1.8-3.9-2.5-5.9-1.7
						c-1.1,0.5-2.2,1.3-3.3,0.9c-0.8-0.3-1.2-1.2-1.6-1.9c-1.1-1.8-3.3-2.9-5.4-2.7C137.7,318,136.3,318.6,134.9,318.1z"/>
					<path fill="#726658" d="M114.7,319.6c1.1,0,2.4,0.2,2.9,1.2c-1-0.8-2.6-0.2-3.2,0.8s-0.7,2.4-0.5,3.6c0.1,0.7,0.3,1.4,0,2.1
						c-0.4,1-1.5,1.5-2.4,2.1c-3.1,1.9-4.7,6.1-3.6,9.6c-1.3-1.1-2.5-2.5-3.1-4.2c-0.5-1.7-0.3-3.7,0.9-5c1.6-1.7,4.8-2,5.7-4.2
						c0.4-0.9,0.3-2,0.3-3s0.3-2.1,1.1-2.7C113.5,319.7,114.1,319.6,114.7,319.6z"/>
					<path fill="#726658" d="M154.2,315c0.3-2.2-1.8-4.3-4-4.1c-0.7,0.1-1.4,0.3-2,0.2c-0.9-0.2-1.5-0.9-2.1-1.5
						c-1.6-1.4-4.1-1.6-5.9-0.6c-1.1,0.6-2.1,1.6-3.3,1.6c-1.1,0-2-0.8-3-1.1c-1.3-0.4-2.9-0.1-3.9,0.9c2.8,0.2,5.1,3.1,7.9,2.7
						c1.8-0.3,3.3-1.9,5.1-1.6c1.8,0.3,2.8,2.3,4.6,2.6c1.1,0.2,2.1-0.4,3.2-0.5C151.9,313.3,153.3,313.9,154.2,315z"/>
				</g>
			</g>
			<path fill="#F0AD66" d="M136.6,397.2c-4.6,0-5.7-2.1-5.7-2.1c0,3.8,3.7,4.5,5.7,4.5c2,0,5.7-0.7,5.7-4.5
				C142.3,395.1,141.2,397.2,136.6,397.2z"/>
			<g>
				<path fill="#414042" d="M168.3,352.3l1.3,4.8c0,0-4.3,7.7-5.1,8.3c-0.8,0.6-3.8,0.5-3.8,0.5l-1-2.2L168.3,352.3z"/>
				<path fill="#58595B" d="M163.3,348.1l-3.6,15.6c0,0,3.5,0.5,4.4-0.4c0.9-1,4.3-10.3,4.2-10.9
					C168.2,351.7,163.3,348.1,163.3,348.1z"/>
				<g>
					<path fill="#414042" d="M153.9,371.7l-0.4-1.8c0,0,4.5-1,6.3-2.1c0.3-0.4,1-2,1.5-3.4l1.8,0.6c-1.3,3.8-2,4.2-2.2,4.3
						C158.8,370.6,154.1,371.7,153.9,371.7z"/>
				</g>
				<path fill="#414042" d="M152.3,371.3L152.3,371.3c0.2,0.7,1,1.1,1.7,0.9l1.6-0.5c0.7-0.2,1.1-1,0.9-1.7l0,0
					c-0.2-0.7-1-1.1-1.7-0.9l-1.6,0.5C152.5,369.9,152.1,370.6,152.3,371.3z"/>
			</g>
		</g>
	</g>
</g>
</svg>
