<?xml version="1.0" standalone="no"?>
<!DOCTYPE svg PUBLIC "-//W3C//DTD SVG 20010904//EN"
 "http://www.w3.org/TR/2001/REC-SVG-20010904/DTD/svg10.dtd">
<svg version="1.0" xmlns="http://www.w3.org/2000/svg"
 width="512.000000pt" height="512.000000pt" viewBox="0 0 512.000000 512.000000"
 preserveAspectRatio="xMidYMid meet">
<metadata>
Created by potrace 1.11, written by Peter Selinger 2001-2013
</metadata>
<g transform="translate(0.000000,512.000000) scale(0.100000,-0.100000)"
fill="#000000" stroke="none">
<path d="M1545 4945 c-75 -21 -123 -44 -191 -91 -319 -223 -309 -708 18 -918
30 -19 71 -41 92 -50 32 -14 37 -19 32 -38 -30 -106 -54 -257 -55 -349 l-1
-56 -93 -5 c-80 -4 -103 -10 -161 -38 -84 -42 -166 -129 -197 -209 -57 -150
-22 -325 86 -431 l45 -44 0 -203 0 -203 -40 6 c-57 9 -123 -3 -164 -31 l-36
-24 -36 24 c-66 45 -182 45 -248 0 l-36 -24 -36 24 c-108 73 -273 27 -336 -94
l-28 -53 0 -965 0 -964 25 -24 24 -25 671 0 671 0 24 25 25 24 0 289 c0 232 3
292 14 301 13 11 64 23 321 76 66 14 134 29 150 34 33 9 36 8 410 -194 33 -18
110 -58 170 -90 61 -32 133 -71 160 -86 l50 -28 3 -175 2 -176 80 0 80 0 2
176 3 177 65 34 c36 19 103 55 150 80 157 84 335 179 461 246 48 25 88 44 90
42 3 -3 79 -20 179 -41 14 -3 111 -23 215 -46 105 -22 199 -42 209 -44 150
-29 232 -48 286 -66 62 -20 86 -32 175 -84 l41 -23 47 65 47 65 -60 38 c-96
62 -200 101 -360 136 -39 8 -177 37 -195 41 -52 10 -68 14 -83 18 -9 3 -28 7
-42 10 -14 2 -83 16 -155 31 -71 15 -134 28 -140 29 -139 28 -183 46 -227 93
-49 51 -65 105 -67 217 l-2 102 78 49 c137 85 306 234 380 333 15 20 31 39 34
42 3 3 27 37 53 75 60 88 147 266 180 367 27 83 29 89 50 193 8 39 15 71 15
73 1 1 1 13 1 26 0 23 3 23 98 28 84 4 107 9 162 37 147 72 228 201 228 362 0
178 -114 333 -283 384 -22 6 -74 13 -115 14 -41 1 -75 3 -76 4 -1 1 -4 45 -8
97 -16 227 -85 434 -208 630 -66 105 -88 131 -204 246 -102 101 -212 179 -349
247 -86 43 -249 99 -325 111 -19 3 -46 9 -60 13 -14 4 -360 9 -770 10 -706 4
-747 5 -787 23 -27 12 -50 31 -61 51 -43 80 -82 97 -167 74z m51 -194 c34 -41
111 -88 164 -100 29 -7 308 -12 780 -14 404 -2 746 -6 760 -10 14 -4 39 -10
55 -13 17 -3 35 -7 40 -8 6 -2 24 -6 40 -10 63 -16 173 -60 245 -98 252 -134
445 -349 554 -618 42 -101 73 -241 81 -357 l5 -71 -37 10 c-94 25 -198 113
-239 202 -30 67 -40 114 -43 206 -3 80 -11 104 -40 120 -13 6 -412 10 -1168
11 -967 0 -1157 3 -1202 15 -173 46 -297 190 -306 354 -6 125 29 222 112 307
41 42 139 103 166 103 4 0 19 -13 33 -29z m2245 -943 c3 -158 96 -325 236
-424 63 -45 176 -93 221 -94 l23 0 -3 -282 -3 -283 -1355 0 -1355 0 0 415 c0
357 6 527 21 551 3 5 9 36 18 86 1 7 5 16 9 19 4 4 7 16 7 26 0 17 40 18 1090
18 l1090 0 1 -32z m-2401 -612 l0 -84 -60 5 c-95 9 -166 -26 -223 -109 -29
-44 -36 -33 -32 48 5 100 76 187 175 214 14 4 51 8 83 9 l57 2 0 -85z m3226
56 c173 -89 173 -335 0 -424 -24 -12 -68 -22 -113 -25 l-73 -5 0 242 0 243 73
-6 c45 -3 89 -13 113 -25z m-3273 -303 c14 -6 30 -22 36 -36 8 -16 11 -185 11
-548 l0 -525 -80 0 -80 0 0 525 c0 364 3 532 11 549 18 40 60 54 102 35z
m2892 -435 c-20 -136 -116 -353 -220 -499 -265 -371 -675 -578 -1130 -570
-449 8 -852 228 -1104 602 -93 139 -201 403 -201 492 0 17 69 18 1331 18
l1331 0 -7 -43z m-3844 -368 c32 -14 39 -54 39 -226 0 -183 -6 -212 -49 -229
-35 -14 -59 -9 -87 18 -21 21 -22 28 -24 195 -1 176 6 218 38 242 17 13 52 12
83 0z m335 -15 c22 -22 23 -26 23 -209 0 -204 -3 -214 -57 -233 -25 -9 -37 -7
-61 7 -16 10 -32 27 -35 38 -11 40 -6 354 5 380 22 48 84 57 125 17z m305 15
c32 -14 39 -54 39 -226 0 -185 -6 -212 -51 -231 -37 -15 -82 2 -98 37 -14 32
-15 343 -1 380 19 48 57 62 111 40z m659 -250 c82 -107 79 -103 47 -81 -20 13
-54 20 -108 23 l-79 5 0 135 0 135 48 -79 c26 -43 68 -105 92 -138z m275 -288
c46 -37 125 -91 179 -122 l48 -28 -4 -112 c-5 -119 -16 -155 -67 -209 -28 -31
-84 -63 -122 -71 -13 -2 -89 -18 -168 -35 -79 -17 -146 -30 -147 -28 -2 1 40
77 92 167 l94 165 -3 170 c-1 94 -7 179 -12 190 -5 12 9 3 35 -21 25 -23 59
-53 75 -66z m-302 61 c38 -17 47 -51 47 -178 0 -93 -3 -121 -15 -131 -8 -7
-15 -16 -15 -21 0 -4 -52 -99 -116 -211 -64 -112 -130 -226 -145 -255 l-29
-51 0 -251 0 -251 -560 0 -560 0 0 603 0 604 66 -3 c68 -3 121 11 156 43 17
15 19 15 37 -1 27 -25 88 -45 137 -46 47 0 120 23 146 47 17 15 19 15 37 -1
50 -45 166 -59 236 -28 l39 18 31 -40 c74 -97 185 -151 318 -155 l77 -2 0 80
0 81 -47 1 c-95 1 -143 18 -196 68 -26 23 -57 71 -57 86 0 10 389 5 413 -6z
m777 -314 c40 -14 105 -31 144 -39 39 -8 85 -18 101 -22 17 -3 107 -7 200 -9
195 -3 317 13 479 65 54 17 99 30 101 28 2 -2 5 -37 6 -78 3 -94 28 -170 78
-236 l38 -50 -41 -23 c-23 -12 -90 -48 -149 -79 -59 -31 -129 -68 -155 -82
-26 -14 -105 -56 -177 -94 -71 -38 -135 -73 -141 -77 -7 -6 -45 10 -100 39
-49 27 -143 77 -209 112 -66 35 -165 88 -220 117 -55 30 -114 61 -131 70 l-32
16 39 51 c56 74 77 140 78 249 1 37 5 67 9 67 5 0 41 -11 82 -25z"/>
<path d="M2321 3178 c-53 -36 -74 -71 -79 -130 -3 -44 0 -59 20 -88 35 -51 78
-76 135 -79 57 -2 103 23 141 79 31 45 27 122 -8 173 -32 47 -54 58 -119 64
-47 4 -61 1 -90 -19z"/>
<path d="M3440 3178 c-58 -40 -82 -85 -78 -145 5 -57 37 -114 77 -135 39 -21
135 -17 168 8 69 51 92 134 57 207 -37 77 -155 112 -224 65z"/>
<path d="M3385 615 c-25 -24 -25 -26 -25 -215 0 -189 0 -191 25 -215 l24 -25
551 0 551 0 24 25 c25 24 25 26 25 215 0 189 0 191 -25 215 l-24 25 -551 0
-551 0 -24 -25z m1015 -215 l0 -80 -440 0 -440 0 0 80 0 80 440 0 440 0 0 -80z"/>
</g>
</svg>
